<svg xmlns="http://www.w3.org/2000/svg" xmlns:xlink="http://www.w3.org/1999/xlink" viewBox="22.8 121.3 234.8 51.4"><defs><linearGradient id="lhm-grad" x1="-448.61" y1="-86.86" x2="639.68" y2="412.01" gradientUnits="userSpaceOnUse"><stop offset="0" stop-color="#8b5cf6"/><stop offset="1" stop-color="#6366f1"/></linearGradient></defs><path fill="#1e1e1e" d="M108.11,159.54c-.98,0-1.85-.19-2.6-.58-.76-.39-1.35-.95-1.77-1.68-.42-.73-.63-1.65-.63-2.74,0-.96.18-1.76.55-2.4.37-.64.91-1.17,1.62-1.57.71-.4,1.59-.73,2.64-1,1.05-.27,2.24-.5,3.57-.7.71-.11,1.3-.22,1.75-.32.46-.1.8-.27,1.02-.5.22-.23.33-.57.33-1.02,0-.62-.22-1.16-.67-1.6-.45-.45-1.15-.67-2.1-.67-.65,0-1.24.11-1.78.33-.55.22-1.01.56-1.4,1-.39.45-.67,1.01-.85,1.7l-4.24-1.3c.27-.91.65-1.7,1.15-2.37.5-.67,1.11-1.23,1.82-1.69.71-.46,1.52-.8,2.44-1.02.91-.22,1.9-.33,2.97-.33,1.71,0,3.11.27,4.19.82,1.08.55,1.88,1.39,2.42,2.54.53,1.15.8,2.62.8,4.42v3c0,.78.02,1.57.05,2.37.03.8.08,1.61.13,2.42s.12,1.62.18,2.42h-4.24c-.09-.56-.17-1.2-.25-1.92-.08-.72-.14-1.45-.18-2.19h-.6c-.31.85-.76,1.61-1.33,2.3-.58.69-1.28,1.24-2.12,1.65-.83.41-1.78.62-2.85.62ZM110.14,156.07c.42,0,.85-.08,1.28-.23.43-.16.86-.37,1.27-.65.41-.28.79-.63,1.13-1.05.34-.42.63-.9.85-1.43l-.07-2.8.77.17c-.4.29-.87.52-1.4.68-.53.17-1.08.29-1.65.38-.57.09-1.13.19-1.68.3-.56.11-1.05.26-1.48.43-.43.18-.78.42-1.03.72-.26.3-.38.72-.38,1.25,0,.69.22,1.23.67,1.63.44.4,1.02.6,1.73.6Z"/><path fill="#1e1e1e" d="M131.63,159.54c-1.51,0-2.84-.22-3.97-.67-1.13-.44-2.08-1.07-2.84-1.87s-1.32-1.75-1.7-2.85c-.38-1.1-.57-2.31-.57-3.62,0-1.38.19-2.64.58-3.79.39-1.15.96-2.14,1.72-2.99.76-.85,1.69-1.5,2.8-1.97,1.11-.47,2.38-.7,3.8-.7s2.66.23,3.72.7c1.06.47,1.91,1.12,2.57,1.95.66.83,1.11,1.82,1.35,2.95l-4.44,1.43c-.07-.69-.25-1.28-.55-1.79s-.7-.88-1.2-1.13-1.06-.38-1.68-.38-1.2.13-1.67.38c-.47.26-.86.62-1.18,1.1-.32.48-.57,1.06-.73,1.73-.17.68-.25,1.44-.25,2.29,0,1.2.16,2.22.48,3.05.32.83.8,1.47,1.43,1.9.63.43,1.42.65,2.35.65s1.6-.17,2.13-.52c.53-.34.93-.79,1.18-1.33.26-.54.42-1.11.48-1.68l4.2.93c-.11.87-.35,1.68-.72,2.44-.37.76-.88,1.41-1.55,1.97s-1.47,1-2.42,1.32c-.95.32-2.06.48-3.35.48Z"/><path fill="#1e1e1e" d="M146.64,159.54c-.98,0-1.85-.19-2.6-.58-.76-.39-1.35-.95-1.77-1.68-.42-.73-.63-1.65-.63-2.74,0-.96.18-1.76.55-2.4.37-.64.91-1.17,1.62-1.57.71-.4,1.59-.73,2.64-1,1.05-.27,2.24-.5,3.57-.7.71-.11,1.3-.22,1.75-.32.46-.1.8-.27,1.02-.5.22-.23.33-.57.33-1.02,0-.62-.22-1.16-.67-1.6-.45-.45-1.15-.67-2.1-.67-.65,0-1.24.11-1.78.33-.55.22-1.01.56-1.4,1-.39.45-.67,1.01-.85,1.7l-4.24-1.3c.27-.91.65-1.7,1.15-2.37.5-.67,1.11-1.23,1.82-1.69.71-.46,1.52-.8,2.44-1.02.91-.22,1.9-.33,2.97-.33,1.71,0,3.11.27,4.19.82,1.08.55,1.88,1.39,2.42,2.54.53,1.15.8,2.62.8,4.42v3c0,.78.02,1.57.05,2.37.03.8.08,1.61.13,2.42s.12,1.62.18,2.42h-4.24c-.09-.56-.17-1.2-.25-1.92-.08-.72-.14-1.45-.18-2.19h-.6c-.31.85-.76,1.61-1.33,2.3-.58.69-1.28,1.24-2.12,1.65-.83.41-1.78.62-2.85.62ZM148.67,156.07c.42,0,.85-.08,1.28-.23.43-.16.86-.37,1.27-.65.41-.28.79-.63,1.13-1.05.34-.42.63-.9.85-1.43l-.07-2.8.77.17c-.4.29-.87.52-1.4.68-.53.17-1.08.29-1.65.38-.57.09-1.13.19-1.68.3-.56.11-1.05.26-1.48.43-.43.18-.78.42-1.03.72-.26.3-.38.72-.38,1.25,0,.69.22,1.23.67,1.63.44.4,1.02.6,1.73.6Z"/><path fill="#1e1e1e" d="M168.49,159.54c-1.47,0-2.75-.38-3.85-1.13-1.1-.76-1.95-1.82-2.55-3.2-.6-1.38-.9-3.01-.9-4.9,0-1.78.27-3.36.8-4.74.53-1.38,1.32-2.46,2.37-3.24,1.05-.78,2.35-1.17,3.9-1.17,1.13,0,2.09.21,2.87.63.78.42,1.42,1.04,1.92,1.85.5.81.89,1.79,1.18,2.92h.77c-.16-.71-.29-1.41-.42-2.09-.12-.68-.22-1.33-.28-1.95-.07-.62-.1-1.17-.1-1.63v-5.67h4.8v23.85h-4v-5.07h-.67c-.25,1.25-.62,2.28-1.13,3.1-.51.82-1.16,1.43-1.95,1.83-.79.4-1.71.6-2.75.6ZM170.09,155.61c.73,0,1.36-.16,1.87-.47s.93-.72,1.27-1.22.58-1.05.73-1.63c.16-.59.23-1.14.23-1.65v-.63c0-.42-.06-.86-.18-1.32-.12-.46-.29-.91-.52-1.35-.22-.44-.5-.84-.83-1.18-.33-.34-.72-.62-1.17-.82-.45-.2-.93-.3-1.47-.3-.8,0-1.48.22-2.04.67-.56.45-.99,1.06-1.3,1.85-.31.79-.47,1.71-.47,2.75s.16,2,.48,2.8c.32.8.77,1.42,1.35,1.85s1.26.65,2.04.65Z"/><path fill="#1e1e1e" d="M184.77,159.08v-11.21h-2.77v-3.54l4.67.2v-.63c-.78-.18-1.42-.46-1.92-.85-.5-.39-.86-.86-1.08-1.42-.22-.56-.33-1.15-.33-1.77,0-.96.24-1.79.73-2.49.49-.7,1.18-1.25,2.07-1.63.89-.39,1.93-.58,3.14-.58,1.02,0,1.95.13,2.79.38.83.26,1.51.57,2.02.95l-.3,4.34c-.53-.38-1.13-.69-1.8-.93-.67-.24-1.3-.37-1.9-.37-.67,0-1.22.18-1.65.53-.43.36-.65.93-.65,1.73,0,.56.12,1,.35,1.32.23.32.52.56.87.7.34.14.68.24,1.02.28h4v3.77h-4.57v11.21h-4.67Z"/><path fill="#1e1e1e" d="M196.75,159.08v-23.85h4.74v23.85h-4.74Z"/><path fill="#1e1e1e" d="M213.83,159.54c-1.76,0-3.3-.35-4.64-1.05s-2.38-1.73-3.14-3.1c-.76-1.37-1.13-3.07-1.13-5.12s.38-3.75,1.15-5.1c.77-1.36,1.82-2.37,3.17-3.05s2.87-1.02,4.59-1.02,3.31.35,4.65,1.03c1.35.69,2.4,1.72,3.17,3.09.77,1.37,1.15,3.07,1.15,5.12s-.4,3.79-1.18,5.15c-.79,1.37-1.86,2.39-3.2,3.05-1.35.67-2.88,1-4.59,1ZM214,155.97c.87,0,1.6-.2,2.19-.6.59-.4,1.03-1.01,1.33-1.82.3-.81.45-1.8.45-2.95,0-1.22-.16-2.26-.48-3.12-.32-.86-.8-1.51-1.42-1.97-.62-.46-1.41-.68-2.37-.68-.82,0-1.53.2-2.14.58-.6.39-1.06.99-1.37,1.8-.31.81-.47,1.81-.47,2.99,0,1.89.38,3.33,1.13,4.3.76.98,1.8,1.47,3.14,1.47Z"/><path fill="#1e1e1e" d="M228.74,159.08l-4.34-17.52h5l2.47,13.71h.63l2.94-13.71h5.77l3.04,13.71h.63l2.4-13.71h4.9l-4.37,17.52h-6.61l-2.74-13.61h-.57l-2.6,13.61h-6.57Z"/><path fill="url(#lhm-grad)" d="M93.96,140.59c-10.59-4.29-21.11-8.56-31.56-12.8-.53-.22-1.13-.22-1.68,0l-31.87,12.94c-.13.06-.21.2-.17.34.04.16.18.29.43.38,10.33,4.18,20.82,8.44,31.46,12.78.64.27,1.36.27,2.01,0l13.54-5.5c.12-.05.24.03.24.16v8.04c0,.15-.09.27-.23.33l-13.79,5.6c-.5.2-1.05.2-1.55,0l-13.31-5.41c-.37-.15-.61-.51-.61-.91v-4.05c0-.38-.23-.71-.56-.84l-2.73-1.11c-.36-.14-.54-.03-.54.36v8.29c0,.35.22.68.55.81l16.74,6.81c.8.32,1.68.32,2.48,0l16.7-6.78c.38-.16.58-.44.58-.86v-12.85c0-.38-.21-.73-.54-.91-1.49-.8-2.48-1.19-4.3-.45-3.63,1.47-7.84,3.18-12.64,5.13-.64.27-1.38.27-2.02,0l-21.44-8.72c-.59-.24-.59-.48,0-.72l7.73-3.14c.34-.13.68-.13,1.01,0l14.02,5.7c.68.28,1.35.27,2.03-.03l2.85-1.26c.67-.3.67-.59,0-.87l-13.37-5.43c-.63-.26-.63-.52,0-.78l6.92-2.81c.83-.33,1.65-.33,2.48,0l21.74,8.83c.27.11.45.38.45.67.02,4.56,0,10.38-.04,17.44,0,.16-.03.29-.05.44-1.38.51-2.37,1.83-2.37,3.39,0,2,1.62,3.62,3.62,3.62s3.62-1.62,3.62-3.62c0-1.65-1.11-3.02-2.61-3.46-.04-.3-.06-.62-.06-.95,0-5.81,0-10.31.03-13.49,0-.44.28-.84.68-1l6.32-2.47s.08-.04.12-.08c.25-.34.15-.61-.29-.78Z"/><path fill="#1e1e1e" d="M108.11,159.54c-.98,0-1.85-.19-2.6-.58-.76-.39-1.35-.95-1.77-1.68-.42-.73-.63-1.65-.63-2.74,0-.96.18-1.76.55-2.4.37-.64.91-1.17,1.62-1.57.71-.4,1.59-.73,2.64-1,1.05-.27,2.24-.5,3.57-.7.71-.11,1.3-.22,1.75-.32.46-.1.8-.27,1.02-.5.22-.23.33-.57.33-1.02,0-.62-.22-1.16-.67-1.6-.45-.45-1.15-.67-2.1-.67-.65,0-1.24.11-1.78.33-.55.22-1.01.56-1.4,1-.39.45-.67,1.01-.85,1.7l-4.24-1.3c.27-.91.65-1.7,1.15-2.37.5-.67,1.11-1.23,1.82-1.69.71-.46,1.52-.8,2.44-1.02.91-.22,1.9-.33,2.97-.33,1.71,0,3.11.27,4.19.82,1.08.55,1.88,1.39,2.42,2.54.53,1.15.8,2.62.8,4.42v3c0,.78.02,1.57.05,2.37.03.8.08,1.61.13,2.42s.12,1.62.18,2.42h-4.24c-.09-.56-.17-1.2-.25-1.92-.08-.72-.14-1.45-.18-2.19h-.6c-.31.85-.76,1.61-1.33,2.3-.58.69-1.28,1.24-2.12,1.65-.83.41-1.78.62-2.85.62ZM110.14,156.07c.42,0,.85-.08,1.28-.23.43-.16.86-.37,1.27-.65.41-.28.79-.63,1.13-1.05.34-.42.63-.9.85-1.43l-.07-2.8.77.17c-.4.29-.87.52-1.4.68-.53.17-1.08.29-1.65.38-.57.09-1.13.19-1.68.3-.56.11-1.05.26-1.48.43-.43.18-.78.42-1.03.72-.26.3-.38.72-.38,1.25,0,.69.22,1.23.67,1.63.44.4,1.02.6,1.73.6Z"/><path fill="#1e1e1e" d="M131.63,159.54c-1.51,0-2.84-.22-3.97-.67-1.13-.44-2.08-1.07-2.84-1.87s-1.32-1.75-1.7-2.85c-.38-1.1-.57-2.31-.57-3.62,0-1.38.19-2.64.58-3.79.39-1.15.96-2.14,1.72-2.99.76-.85,1.69-1.5,2.8-1.97,1.11-.47,2.38-.7,3.8-.7s2.66.23,3.72.7c1.06.47,1.91,1.12,2.57,1.95.66.83,1.11,1.82,1.35,2.95l-4.44,1.43c-.07-.69-.25-1.28-.55-1.79s-.7-.88-1.2-1.13-1.06-.38-1.68-.38-1.2.13-1.67.38c-.47.26-.86.62-1.18,1.1-.32.48-.57,1.06-.73,1.73-.17.68-.25,1.44-.25,2.29,0,1.2.16,2.22.48,3.05.32.83.8,1.47,1.43,1.9.63.43,1.42.65,2.35.65s1.6-.17,2.13-.52c.53-.34.93-.79,1.18-1.33.26-.54.42-1.11.48-1.68l4.2.93c-.11.87-.35,1.68-.72,2.44-.37.76-.88,1.41-1.55,1.97s-1.47,1-2.42,1.32c-.95.32-2.06.48-3.35.48Z"/><path fill="#1e1e1e" d="M146.64,159.54c-.98,0-1.85-.19-2.6-.58-.76-.39-1.35-.95-1.77-1.68-.42-.73-.63-1.65-.63-2.74,0-.96.18-1.76.55-2.4.37-.64.91-1.17,1.62-1.57.71-.4,1.59-.73,2.64-1,1.05-.27,2.24-.5,3.57-.7.71-.11,1.3-.22,1.75-.32.46-.1.8-.27,1.02-.5.22-.23.33-.57.33-1.02,0-.62-.22-1.16-.67-1.6-.45-.45-1.15-.67-2.1-.67-.65,0-1.24.11-1.78.33-.55.22-1.01.56-1.4,1-.39.45-.67,1.01-.85,1.7l-4.24-1.3c.27-.91.65-1.7,1.15-2.37.5-.67,1.11-1.23,1.82-1.69.71-.46,1.52-.8,2.44-1.02.91-.22,1.9-.33,2.97-.33,1.71,0,3.11.27,4.19.82,1.08.55,1.88,1.39,2.42,2.54.53,1.15.8,2.62.8,4.42v3c0,.78.02,1.57.05,2.37.03.8.08,1.61.13,2.42s.12,1.62.18,2.42h-4.24c-.09-.56-.17-1.2-.25-1.92-.08-.72-.14-1.45-.18-2.19h-.6c-.31.85-.76,1.61-1.33,2.3-.58.69-1.28,1.24-2.12,1.65-.83.41-1.78.62-2.85.62ZM148.67,156.07c.42,0,.85-.08,1.28-.23.43-.16.86-.37,1.27-.65.41-.28.79-.63,1.13-1.05.34-.42.63-.9.85-1.43l-.07-2.8.77.17c-.4.29-.87.52-1.4.68-.53.17-1.08.29-1.65.38-.57.09-1.13.19-1.68.3-.56.11-1.05.26-1.48.43-.43.18-.78.42-1.03.72-.26.3-.38.72-.38,1.25,0,.69.22,1.23.67,1.63.44.4,1.02.6,1.73.6Z"/><path fill="#1e1e1e" d="M168.49,159.54c-1.47,0-2.75-.38-3.85-1.13-1.1-.76-1.95-1.82-2.55-3.2-.6-1.38-.9-3.01-.9-4.9,0-1.78.27-3.36.8-4.74.53-1.38,1.32-2.46,2.37-3.24,1.05-.78,2.35-1.17,3.9-1.17,1.13,0,2.09.21,2.87.63.78.42,1.42,1.04,1.92,1.85.5.81.89,1.79,1.18,2.92h.77c-.16-.71-.29-1.41-.42-2.09-.12-.68-.22-1.33-.28-1.95-.07-.62-.1-1.17-.1-1.63v-5.67h4.8v23.85h-4v-5.07h-.67c-.25,1.25-.62,2.28-1.13,3.1-.51.82-1.16,1.43-1.95,1.83-.79.4-1.71.6-2.75.6ZM170.09,155.61c.73,0,1.36-.16,1.87-.47s.93-.72,1.27-1.22.58-1.05.73-1.63c.16-.59.23-1.14.23-1.65v-.63c0-.42-.06-.86-.18-1.32-.12-.46-.29-.91-.52-1.35-.22-.44-.5-.84-.83-1.18-.33-.34-.72-.62-1.17-.82-.45-.2-.93-.3-1.47-.3-.8,0-1.48.22-2.04.67-.56.45-.99,1.06-1.3,1.85-.31.79-.47,1.71-.47,2.75s.16,2,.48,2.8c.32.8.77,1.42,1.35,1.85s1.26.65,2.04.65Z"/><path fill="#1e1e1e" d="M184.77,159.08v-11.21h-2.77v-3.54l4.67.2v-.63c-.78-.18-1.42-.46-1.92-.85-.5-.39-.86-.86-1.08-1.42-.22-.56-.33-1.15-.33-1.77,0-.96.24-1.79.73-2.49.49-.7,1.18-1.25,2.07-1.63.89-.39,1.93-.58,3.14-.58,1.02,0,1.95.13,2.79.38.83.26,1.51.57,2.02.95l-.3,4.34c-.53-.38-1.13-.69-1.8-.93-.67-.24-1.3-.37-1.9-.37-.67,0-1.22.18-1.65.53-.43.36-.65.93-.65,1.73,0,.56.12,1,.35,1.32.23.32.52.56.87.7.34.14.68.24,1.02.28h4v3.77h-4.57v11.21h-4.67Z"/><path fill="#1e1e1e" d="M196.75,159.08v-23.85h4.74v23.85h-4.74Z"/><path fill="#1e1e1e" d="M213.83,159.54c-1.76,0-3.3-.35-4.64-1.05s-2.38-1.73-3.14-3.1c-.76-1.37-1.13-3.07-1.13-5.12s.38-3.75,1.15-5.1c.77-1.36,1.82-2.37,3.17-3.05s2.87-1.02,4.59-1.02,3.31.35,4.65,1.03c1.35.69,2.4,1.72,3.17,3.09.77,1.37,1.15,3.07,1.15,5.12s-.4,3.79-1.18,5.15c-.79,1.37-1.86,2.39-3.2,3.05-1.35.67-2.88,1-4.59,1ZM214,155.97c.87,0,1.6-.2,2.19-.6.59-.4,1.03-1.01,1.33-1.82.3-.81.45-1.8.45-2.95,0-1.22-.16-2.26-.48-3.12-.32-.86-.8-1.51-1.42-1.97-.62-.46-1.41-.68-2.37-.68-.82,0-1.53.2-2.14.58-.6.39-1.06.99-1.37,1.8-.31.81-.47,1.81-.47,2.99,0,1.89.38,3.33,1.13,4.3.76.98,1.8,1.47,3.14,1.47Z"/><path fill="#1e1e1e" d="M228.74,159.08l-4.34-17.52h5l2.47,13.71h.63l2.94-13.71h5.77l3.04,13.71h.63l2.4-13.71h4.9l-4.37,17.52h-6.61l-2.74-13.61h-.57l-2.6,13.61h-6.57Z"/><path fill="#1e1e1e" d="M93.96,140.59c-10.59-4.29-21.11-8.56-31.56-12.8-.53-.22-1.13-.22-1.68,0l-31.87,12.94c-.13.06-.21.2-.17.34.04.16.18.29.43.38,10.33,4.18,20.82,8.44,31.46,12.78.64.27,1.36.27,2.01,0l13.54-5.5c.12-.05.24.03.24.16v8.04c0,.15-.09.27-.23.33l-13.79,5.6c-.5.2-1.05.2-1.55,0l-13.31-5.41c-.37-.15-.61-.51-.61-.91v-4.05c0-.38-.23-.71-.56-.84l-2.73-1.11c-.36-.14-.54-.03-.54.36v8.29c0,.35.22.68.55.81l16.74,6.81c.8.32,1.68.32,2.48,0l16.7-6.78c.38-.16.58-.44.58-.86v-12.85c0-.38-.21-.73-.54-.91-1.49-.8-2.48-1.19-4.3-.45-3.63,1.47-7.84,3.18-12.64,5.13-.64.27-1.38.27-2.02,0l-21.44-8.72c-.59-.24-.59-.48,0-.72l7.73-3.14c.34-.13.68-.13,1.01,0l14.02,5.7c.68.28,1.35.27,2.03-.03l2.85-1.26c.67-.3.67-.59,0-.87l-13.37-5.43c-.63-.26-.63-.52,0-.78l6.92-2.81c.83-.33,1.65-.33,2.48,0l21.74,8.83c.27.11.45.38.45.67.02,4.56,0,10.38-.04,17.44,0,.16-.03.29-.05.44-1.38.51-2.37,1.83-2.37,3.39,0,2,1.62,3.62,3.62,3.62s3.62-1.62,3.62-3.62c0-1.65-1.11-3.02-2.61-3.46-.04-.3-.06-.62-.06-.95,0-5.81,0-10.31.03-13.49,0-.44.28-.84.68-1l6.32-2.47s.08-.04.12-.08c.25-.34.15-.61-.29-.78Z"/></svg>