<svg xmlns="http://www.w3.org/2000/svg" xmlns:xlink="http://www.w3.org/1999/xlink" viewBox="16.7 71.3 253.8 144.6"><defs><linearGradient id="lsm-grad" x1="-481.06" y1="-185.34" x2="852.4" y2="425.91" gradientUnits="userSpaceOnUse"><stop offset="0" stop-color="#8b5cf6"/><stop offset="1" stop-color="#6366f1"/></linearGradient></defs><path fill="#1e1e1e" d="M31.33,180.99c-1.59,0-2.99-.32-4.22-.95-1.23-.63-2.18-1.54-2.86-2.73-.68-1.19-1.03-2.67-1.03-4.43,0-1.55.3-2.85.89-3.89.59-1.04,1.47-1.89,2.62-2.54,1.15-.65,2.58-1.19,4.27-1.62,1.69-.43,3.62-.81,5.78-1.14,1.15-.18,2.1-.35,2.84-.51.74-.16,1.29-.43,1.65-.81.36-.38.54-.93.54-1.65,0-1.01-.36-1.87-1.08-2.59-.72-.72-1.86-1.08-3.41-1.08-1.05,0-2.01.18-2.89.54-.88.36-1.64.9-2.27,1.62-.63.72-1.09,1.64-1.38,2.76l-6.86-2.11c.43-1.48,1.05-2.76,1.86-3.84.81-1.08,1.79-1.99,2.95-2.73,1.15-.74,2.47-1.29,3.95-1.65,1.48-.36,3.08-.54,4.81-.54,2.77,0,5.03.44,6.78,1.32,1.75.88,3.05,2.25,3.92,4.11.86,1.86,1.3,4.24,1.3,7.16v4.86c0,1.26.03,2.54.08,3.84.05,1.3.13,2.6.22,3.92s.19,2.62.3,3.92h-6.86c-.14-.9-.28-1.94-.41-3.11-.13-1.17-.23-2.35-.3-3.54h-.97c-.5,1.37-1.23,2.61-2.16,3.73-.94,1.12-2.08,2.01-3.43,2.68-1.35.67-2.89,1-4.62,1ZM34.63,175.37c.68,0,1.38-.13,2.08-.38.7-.25,1.39-.6,2.05-1.05.67-.45,1.28-1.02,1.84-1.7.56-.68,1.02-1.46,1.38-2.32l-.11-4.54,1.24.27c-.65.47-1.41.84-2.27,1.11-.86.27-1.76.48-2.68.62-.92.14-1.83.31-2.73.49-.9.18-1.7.41-2.4.7-.7.29-1.26.68-1.68,1.16-.41.49-.62,1.16-.62,2.03,0,1.12.36,2,1.08,2.65.72.65,1.66.97,2.81.97Z"/><path fill="#1e1e1e" d="M69.44,180.99c-2.45,0-4.59-.36-6.43-1.08-1.84-.72-3.37-1.73-4.59-3.03s-2.14-2.84-2.76-4.62c-.61-1.78-.92-3.74-.92-5.86,0-2.23.32-4.28.95-6.13.63-1.86,1.56-3.47,2.78-4.84,1.22-1.37,2.74-2.43,4.54-3.19,1.8-.76,3.85-1.13,6.16-1.13s4.31.38,6.03,1.13c1.71.76,3.1,1.81,4.16,3.16,1.06,1.35,1.79,2.95,2.19,4.78l-7.19,2.32c-.11-1.12-.41-2.08-.89-2.89s-1.14-1.42-1.95-1.84-1.72-.62-2.73-.62-1.95.21-2.7.62c-.76.41-1.4,1.01-1.92,1.78-.52.78-.92,1.71-1.19,2.81-.27,1.1-.41,2.33-.41,3.7,0,1.95.26,3.59.78,4.95.52,1.35,1.3,2.38,2.32,3.08,1.03.7,2.3,1.05,3.81,1.05s2.59-.28,3.46-.84c.87-.56,1.5-1.28,1.92-2.16.41-.88.68-1.79.78-2.73l6.81,1.51c-.18,1.41-.57,2.72-1.16,3.95-.59,1.23-1.43,2.29-2.51,3.19s-2.39,1.61-3.92,2.13c-1.53.52-3.34.78-5.43.78Z"/><path fill="#1e1e1e" d="M93.76,180.99c-1.59,0-2.99-.32-4.22-.95-1.23-.63-2.18-1.54-2.86-2.73-.68-1.19-1.03-2.67-1.03-4.43,0-1.55.3-2.85.89-3.89.59-1.04,1.47-1.89,2.62-2.54,1.15-.65,2.58-1.19,4.27-1.62,1.69-.43,3.62-.81,5.78-1.14,1.15-.18,2.1-.35,2.84-.51.74-.16,1.29-.43,1.65-.81.36-.38.54-.93.54-1.65,0-1.01-.36-1.87-1.08-2.59-.72-.72-1.86-1.08-3.41-1.08-1.05,0-2.01.18-2.89.54-.88.36-1.64.9-2.27,1.62-.63.72-1.09,1.64-1.38,2.76l-6.86-2.11c.43-1.48,1.05-2.76,1.86-3.84.81-1.08,1.79-1.99,2.95-2.73,1.15-.74,2.47-1.29,3.95-1.65,1.48-.36,3.08-.54,4.81-.54,2.77,0,5.03.44,6.78,1.32,1.75.88,3.05,2.25,3.92,4.11.86,1.86,1.3,4.24,1.3,7.16v4.86c0,1.26.03,2.54.08,3.84.05,1.3.13,2.6.22,3.92s.19,2.62.3,3.92h-6.86c-.14-.9-.28-1.94-.41-3.11-.13-1.17-.23-2.35-.3-3.54h-.97c-.5,1.37-1.23,2.61-2.16,3.73-.94,1.12-2.08,2.01-3.43,2.68-1.35.67-2.89,1-4.62,1ZM97.06,175.37c.68,0,1.38-.13,2.08-.38.7-.25,1.39-.6,2.05-1.05.67-.45,1.28-1.02,1.84-1.7.56-.68,1.02-1.46,1.38-2.32l-.11-4.54,1.24.27c-.65.47-1.41.84-2.27,1.11-.86.27-1.76.48-2.68.62-.92.14-1.83.31-2.73.49-.9.18-1.7.41-2.4.7-.7.29-1.26.68-1.68,1.16-.41.49-.62,1.16-.62,2.03,0,1.12.36,2,1.08,2.65.72.65,1.66.97,2.81.97Z"/><path fill="#1e1e1e" d="M129.16,180.99c-2.38,0-4.46-.61-6.24-1.84-1.78-1.23-3.16-2.95-4.13-5.19-.97-2.23-1.46-4.88-1.46-7.95,0-2.88.43-5.44,1.3-7.68.86-2.23,2.14-3.98,3.84-5.24,1.69-1.26,3.8-1.89,6.32-1.89,1.84,0,3.39.34,4.65,1.03,1.26.68,2.3,1.69,3.11,3,.81,1.32,1.45,2.89,1.92,4.73h1.24c-.25-1.15-.48-2.28-.68-3.38-.2-1.1-.35-2.15-.46-3.16-.11-1.01-.16-1.89-.16-2.65v-9.19h7.78v38.65h-6.49v-8.22h-1.08c-.4,2.02-1.01,3.69-1.84,5.03-.83,1.33-1.88,2.32-3.16,2.97-1.28.65-2.77.97-4.46.97ZM131.76,174.62c1.19,0,2.2-.25,3.03-.76s1.51-1.16,2.05-1.97.94-1.69,1.19-2.65c.25-.95.38-1.85.38-2.68v-1.03c0-.68-.1-1.4-.3-2.14-.2-.74-.48-1.47-.84-2.19-.36-.72-.81-1.36-1.35-1.92-.54-.56-1.17-1-1.89-1.32-.72-.32-1.51-.49-2.38-.49-1.3,0-2.4.36-3.3,1.08-.9.72-1.6,1.72-2.11,3-.51,1.28-.76,2.77-.76,4.46s.26,3.24.78,4.54c.52,1.3,1.25,2.3,2.19,3s2.04,1.05,3.3,1.05Z"/><path fill="#1e1e1e" d="M155.54,180.24v-18.16h-4.49v-5.73l7.57.32v-1.03c-1.26-.29-2.3-.75-3.11-1.38-.81-.63-1.4-1.4-1.76-2.3-.36-.9-.54-1.86-.54-2.86,0-1.55.4-2.89,1.19-4.03.79-1.13,1.91-2.02,3.35-2.65,1.44-.63,3.13-.95,5.08-.95,1.66,0,3.16.21,4.51.62,1.35.41,2.44.93,3.27,1.54l-.49,7.03c-.87-.61-1.84-1.12-2.92-1.51-1.08-.4-2.11-.59-3.08-.59-1.08,0-1.97.29-2.67.86-.7.58-1.05,1.51-1.05,2.81,0,.9.19,1.61.57,2.14.38.52.85.9,1.41,1.13.56.23,1.11.39,1.65.46h6.49v6.11h-7.4v18.16h-7.57Z"/><path fill="#1e1e1e" d="M174.94,180.24v-38.65h7.68v38.65h-7.68Z"/><path fill="#1e1e1e" d="M202.62,180.99c-2.85,0-5.35-.57-7.51-1.7s-3.86-2.81-5.08-5.03c-1.22-2.22-1.84-4.98-1.84-8.3s.62-6.07,1.86-8.27c1.24-2.2,2.95-3.85,5.13-4.95s4.66-1.65,7.43-1.65,5.36.56,7.54,1.68c2.18,1.12,3.89,2.78,5.13,5,1.24,2.22,1.86,4.98,1.86,8.3s-.64,6.14-1.92,8.35c-1.28,2.22-3.01,3.86-5.19,4.95-2.18,1.08-4.66,1.62-7.43,1.62ZM202.89,175.21c1.41,0,2.59-.32,3.54-.97.95-.65,1.68-1.63,2.16-2.95.49-1.31.73-2.91.73-4.78,0-1.98-.26-3.67-.78-5.05-.52-1.39-1.29-2.45-2.3-3.19-1.01-.74-2.29-1.11-3.84-1.11-1.33,0-2.49.32-3.46.95-.97.63-1.71,1.6-2.22,2.92-.5,1.32-.76,2.93-.76,4.84,0,3.06.61,5.39,1.84,6.97,1.22,1.59,2.92,2.38,5.08,2.38Z"/><path fill="#1e1e1e" d="M226.78,180.24l-7.03-28.38h8.11l4,22.21h1.03l4.76-22.21h9.35l4.92,22.21h1.03l3.89-22.21h7.95l-7.08,28.38h-10.7l-4.43-22.05h-.92l-4.22,22.05h-10.65Z"/><path d="M68.29,206.89l-2.83-8.31,1.65-.02,2.03,6.22-.36-.03,2.2-4.86h.98l2.22,4.87-.43.03,2.04-6.22h1.65l-2.8,8.31h-1.12l-2.31-5.29.36.05-2.15,5.24h-1.11Z"/><path d="M78.91,206.89v-11.71h1.63v5.11l-.29.19c.11-.37.31-.71.62-1.02.31-.31.67-.56,1.09-.76.42-.2.85-.29,1.3-.29.63,0,1.16.12,1.58.37.42.25.74.62.95,1.13.21.51.32,1.14.32,1.91v5.06h-1.63v-4.95c0-.47-.06-.87-.19-1.18-.13-.31-.32-.54-.58-.68-.26-.14-.59-.2-.98-.18-.32,0-.61.05-.87.15-.26.1-.49.24-.69.42-.19.18-.35.39-.46.62-.11.24-.17.49-.17.77v5.03h-1.63Z"/><path d="M92.2,207.05c-.85,0-1.61-.18-2.27-.55-.66-.36-1.18-.86-1.55-1.5-.37-.63-.56-1.36-.56-2.18,0-.65.1-1.25.32-1.79s.5-1,.88-1.4c.37-.4.82-.7,1.35-.92.52-.22,1.09-.32,1.7-.32.54,0,1.04.1,1.5.31.46.21.87.49,1.21.85.34.36.61.78.79,1.27.18.49.27,1.03.26,1.61l-.02.7h-6.79l-.36-1.3h5.74l-.24.27v-.38c-.03-.35-.15-.66-.35-.93-.2-.28-.45-.49-.76-.65-.31-.16-.64-.24-1-.24-.57,0-1.05.11-1.44.32-.39.22-.69.53-.89.95-.2.42-.3.93-.3,1.54,0,.58.12,1.08.36,1.51.24.43.59.76,1.03.99s.95.35,1.53.35c.41,0,.79-.07,1.15-.21s.74-.38,1.15-.74l.82,1.15c-.25.25-.56.47-.93.66-.36.19-.75.34-1.15.45-.41.11-.8.17-1.2.17Z"/><path d="M97.6,206.89v-8.31h1.65v2.61l-.16-.63c.12-.4.31-.76.59-1.09.28-.33.6-.59.97-.77.36-.19.74-.29,1.13-.29.18,0,.35.02.51.05.16.03.29.07.39.11l-.43,1.77c-.13-.05-.27-.1-.42-.13-.15-.04-.3-.06-.45-.06-.28,0-.56.06-.82.17-.26.11-.48.26-.68.46-.19.2-.35.42-.47.68-.12.26-.17.54-.17.85v4.59h-1.65Z"/><path d="M107.5,207.05c-.86,0-1.61-.18-2.27-.55-.66-.36-1.18-.86-1.55-1.5-.37-.63-.56-1.36-.56-2.18,0-.65.1-1.25.32-1.79s.5-1,.88-1.4c.37-.4.82-.7,1.35-.92.52-.22,1.09-.32,1.7-.32.54,0,1.04.1,1.5.31s.87.49,1.21.85.61.78.79,1.27.27,1.03.26,1.61l-.02.7h-6.79l-.36-1.3h5.75l-.24.27v-.38c-.03-.35-.15-.66-.35-.93-.2-.28-.45-.49-.76-.65-.31-.16-.64-.24-1-.24-.57,0-1.05.11-1.44.32-.39.22-.69.53-.89.95-.2.42-.3.93-.3,1.54,0,.58.12,1.08.36,1.51.24.43.59.76,1.03.99.44.23.95.35,1.53.35.41,0,.79-.07,1.15-.21s.74-.38,1.15-.74l.82,1.15c-.25.25-.56.47-.93.66-.36.19-.75.34-1.16.45-.4.11-.8.17-1.19.17Z"/><path d="M117.36,206.89v-11.71h1.63v11.71h-1.63Z"/><path d="M125.02,207.05c-.85,0-1.61-.18-2.27-.55-.66-.36-1.18-.86-1.55-1.5-.37-.63-.56-1.36-.56-2.18,0-.65.1-1.25.32-1.79s.5-1,.88-1.4c.37-.4.82-.7,1.35-.92.52-.22,1.09-.32,1.7-.32.54,0,1.04.1,1.5.31s.87.49,1.21.85.61.78.79,1.27.27,1.03.26,1.61l-.02.7h-6.79l-.36-1.3h5.75l-.24.27v-.38c-.03-.35-.15-.66-.35-.93-.2-.28-.45-.49-.76-.65-.31-.16-.64-.24-1-.24-.57,0-1.05.11-1.44.32-.39.22-.68.53-.89.95-.2.42-.3.93-.3,1.54,0,.58.12,1.08.36,1.51.24.43.59.76,1.03.99.44.23.95.35,1.53.35.41,0,.79-.07,1.15-.21s.74-.38,1.15-.74l.82,1.15c-.25.25-.56.47-.93.66-.36.19-.75.34-1.16.45-.4.11-.8.17-1.19.17Z"/><path d="M133.62,207.05c-.69,0-1.31-.19-1.88-.57-.57-.38-1.01-.9-1.35-1.55-.34-.65-.51-1.39-.51-2.22s.17-1.57.51-2.22.81-1.16,1.39-1.53c.59-.37,1.24-.55,1.97-.55.43,0,.83.06,1.19.19.36.13.67.3.94.53.27.23.49.49.67.78.17.3.28.61.32.95l-.36-.13v-2.15h1.65v8.31h-1.65v-1.98l.38-.11c-.06.29-.19.56-.39.83-.2.27-.44.51-.74.72s-.63.38-1,.51-.75.19-1.15.19ZM134.04,205.55c.49,0,.93-.12,1.31-.36.38-.24.68-.58.89-1,.22-.43.33-.92.33-1.46s-.11-1.02-.33-1.44c-.21-.42-.51-.75-.89-1-.38-.24-.82-.36-1.31-.36s-.92.12-1.29.36c-.37.24-.67.58-.89,1-.22.42-.33.9-.33,1.44s.11,1.04.33,1.46c.22.43.51.76.89,1s.81.36,1.29.36Z"/><path d="M140.43,206.89v-8.31h1.65v2.61l-.16-.63c.12-.4.31-.76.59-1.09.28-.33.6-.59.96-.77.36-.19.74-.29,1.13-.29.18,0,.35.02.51.05.16.03.29.07.39.11l-.43,1.77c-.13-.05-.27-.1-.42-.13-.15-.04-.3-.06-.45-.06-.29,0-.56.06-.82.17-.26.11-.49.26-.68.46-.19.2-.35.42-.47.68-.12.26-.17.54-.17.85v4.59h-1.65Z"/><path d="M146.81,206.89v-8.31h1.63v1.71l-.29.19c.11-.37.31-.71.62-1.02.31-.31.67-.56,1.09-.76s.86-.29,1.3-.29c.63,0,1.16.12,1.58.37.42.25.74.62.95,1.13.21.51.32,1.14.32,1.91v5.06h-1.63v-4.95c0-.47-.06-.87-.19-1.18-.13-.31-.32-.54-.59-.68-.27-.14-.59-.2-.98-.18-.32,0-.61.05-.87.15-.26.1-.49.24-.69.42-.2.18-.35.39-.46.62s-.17.49-.17.77v5.03h-1.63Z"/><path d="M157.29,196.75c-.35,0-.62-.09-.81-.27-.19-.18-.29-.43-.29-.76,0-.31.1-.55.29-.74.19-.19.46-.28.8-.28s.62.09.81.27.29.43.29.76c0,.31-.1.55-.29.74-.19.19-.46.28-.8.28ZM156.49,206.89v-8.31h1.63v8.31h-1.63Z"/><path d="M160.62,206.89v-8.31h1.63v1.71l-.29.19c.11-.37.31-.71.62-1.02.31-.31.67-.56,1.09-.76s.86-.29,1.3-.29c.63,0,1.16.12,1.58.37.42.25.74.62.95,1.13.21.51.32,1.14.32,1.91v5.06h-1.63v-4.95c0-.47-.06-.87-.19-1.18-.13-.31-.32-.54-.59-.68-.27-.14-.59-.2-.98-.18-.32,0-.61.05-.87.15-.26.1-.49.24-.69.42-.2.18-.35.39-.46.62s-.17.49-.17.77v5.03h-1.63Z"/><path d="M173.76,210.53c-.59,0-1.18-.09-1.76-.28-.59-.18-1.06-.42-1.42-.72l.6-1.27c.21.16.46.3.74.42s.59.22.9.29c.32.07.63.1.93.1.58,0,1.07-.09,1.45-.28.39-.19.69-.47.89-.84.2-.37.3-.83.3-1.38v-1.6l.17.11c-.05.33-.22.64-.51.94-.29.3-.65.55-1.09.74-.43.19-.88.28-1.33.28-.79,0-1.5-.19-2.11-.56-.62-.37-1.11-.89-1.46-1.53s-.54-1.39-.54-2.22.18-1.58.53-2.22.84-1.16,1.45-1.53c.62-.37,1.31-.56,2.08-.56.32,0,.62.04.92.12s.57.19.82.33c.25.14.48.3.68.47s.36.35.49.54c.13.19.21.37.24.54l-.35.13v-1.95h1.63v7.8c0,.66-.1,1.25-.29,1.76-.19.51-.48.94-.85,1.3-.37.35-.82.62-1.35.81s-1.12.28-1.79.28ZM173.82,205.55c.51,0,.97-.12,1.38-.36s.71-.58.93-1,.33-.91.33-1.46-.11-1.04-.34-1.46c-.23-.43-.54-.76-.93-1s-.85-.36-1.37-.36-.96.12-1.35.37c-.4.25-.71.59-.93,1.01-.23.43-.34.91-.34,1.45s.11,1.02.34,1.45c.23.43.54.76.93,1,.39.24.85.36,1.35.36Z"/><path d="M184.31,200.23v-1.5h4.94v1.5h-4.94ZM185.64,206.89v-9.24c0-.47.1-.9.32-1.27.21-.37.5-.66.87-.87.37-.21.8-.32,1.28-.32.34,0,.65.06.95.19s.53.3.71.51l-.56,1.25c-.14-.13-.29-.23-.45-.31-.16-.08-.32-.12-.47-.12-.22,0-.41.04-.56.1-.15.07-.27.17-.34.32-.08.14-.11.31-.11.51v9.24h-1.65ZM190.99,206.89v-11.71h1.63v11.71h-1.63Z"/><path d="M198.51,207.05c-.81,0-1.54-.19-2.18-.56-.64-.37-1.14-.89-1.51-1.53s-.55-1.39-.55-2.22.18-1.58.55-2.22.87-1.16,1.51-1.53,1.36-.56,2.18-.56,1.52.19,2.16.56c.64.37,1.14.89,1.51,1.53s.56,1.39.56,2.22-.19,1.57-.56,2.22-.87,1.16-1.51,1.53c-.64.37-1.36.56-2.16.56ZM198.51,205.56c.49,0,.94-.12,1.33-.37.39-.25.7-.59.92-1.01.22-.43.33-.91.32-1.45.01-.55-.09-1.04-.32-1.46-.22-.43-.53-.76-.92-1-.39-.24-.83-.36-1.33-.36s-.94.12-1.34.37c-.4.25-.7.59-.93,1.01-.22.43-.33.91-.32,1.45-.01.54.1,1.02.32,1.45.22.43.53.76.93,1.01.4.25.84.37,1.34.37Z"/><path d="M206.23,206.89l-2.83-8.31,1.65-.02,2.02,6.22-.36-.03,2.2-4.86h.98l2.22,4.87-.43.03,2.04-6.22h1.65l-2.8,8.31h-1.13l-2.31-5.29.36.05-2.15,5.24h-1.11Z"/><path d="M219.54,207.05c-.69,0-1.32-.12-1.88-.36-.56-.24-1.02-.6-1.39-1.08l1.11-.95c.32.37.66.64,1.03.8.37.16.8.25,1.27.25.19,0,.37-.02.53-.07.16-.05.31-.12.43-.21s.21-.21.28-.34c.06-.13.09-.28.09-.43,0-.28-.1-.5-.3-.67-.11-.07-.27-.16-.5-.24s-.52-.18-.88-.28c-.61-.16-1.11-.34-1.5-.54-.39-.2-.69-.43-.9-.68-.16-.2-.28-.42-.35-.66s-.11-.5-.11-.78c0-.35.08-.67.23-.96.15-.29.36-.54.63-.76.27-.22.59-.38.95-.5s.75-.17,1.16-.17c.39,0,.78.05,1.16.16.38.11.74.26,1.07.46.33.2.6.44.82.71l-.93,1.03c-.2-.2-.42-.38-.66-.53s-.48-.27-.72-.36-.46-.13-.66-.13c-.22,0-.42.02-.6.06-.18.04-.33.1-.45.19s-.21.19-.28.32c-.07.13-.1.27-.1.43.01.14.05.27.1.39s.14.22.24.31c.12.08.29.17.52.27s.53.19.89.27c.53.14.96.29,1.31.45.34.16.61.35.82.56.21.2.36.43.44.7.09.26.13.56.13.89,0,.47-.13.9-.4,1.27-.27.37-.63.67-1.09.88s-.96.32-1.52.32Z"/><path fill="url(#lsm-grad)" d="M183.74,93.35c-12.98-5.26-25.87-10.49-38.67-15.69-.65-.27-1.39-.27-2.05,0l-39.05,15.86c-.16.07-.26.25-.2.42.05.19.22.36.52.47,12.65,5.13,25.51,10.34,38.55,15.66.79.33,1.66.33,2.46.01l16.59-6.74c.14-.06.3.04.3.19v9.85c0,.18-.11.34-.28.41l-16.9,6.86c-.61.25-1.29.25-1.9,0l-16.31-6.63c-.45-.18-.75-.62-.75-1.11v-4.96c0-.46-.28-.87-.68-1.03l-3.35-1.36c-.44-.17-.66-.03-.66.44v10.16c0,.43.27.83.67.99l20.52,8.34c.98.39,2.06.39,3.03,0l20.46-8.31c.47-.19.7-.54.7-1.05v-15.75c0-.47-.26-.89-.66-1.11-1.83-.98-3.03-1.46-5.27-.55-4.45,1.8-9.61,3.89-15.48,6.29-.79.33-1.68.33-2.47,0l-26.28-10.68c-.73-.3-.73-.58,0-.88l9.47-3.85c.42-.16.83-.16,1.24,0l17.18,6.98c.83.34,1.65.33,2.48-.04l3.49-1.54c.83-.37.83-.73-.01-1.06l-16.38-6.66c-.78-.32-.78-.63,0-.95l8.48-3.44c1.01-.41,2.02-.41,3.03,0l26.64,10.82c.34.13.55.46.55.82.02,5.59,0,12.71-.05,21.37,0,.2-.04.36-.06.54-1.69.63-2.9,2.24-2.9,4.15,0,2.45,1.99,4.44,4.44,4.44s4.44-1.99,4.44-4.44c0-2.02-1.36-3.7-3.2-4.24-.05-.37-.07-.76-.07-1.16-.01-7.12,0-12.63.03-16.53.01-.54.34-1.03.84-1.23l7.74-3.02c.05-.02.1-.05.14-.1.31-.42.18-.75-.36-.96Z"/><path fill="#1e1e1e" d="M31.33,180.99c-1.59,0-2.99-.32-4.22-.95-1.23-.63-2.18-1.54-2.86-2.73-.68-1.19-1.03-2.67-1.03-4.43,0-1.55.3-2.85.89-3.89.59-1.04,1.47-1.89,2.62-2.54,1.15-.65,2.58-1.19,4.27-1.62,1.69-.43,3.62-.81,5.78-1.14,1.15-.18,2.1-.35,2.84-.51.74-.16,1.29-.43,1.65-.81.36-.38.54-.93.54-1.65,0-1.01-.36-1.87-1.08-2.59-.72-.72-1.86-1.08-3.41-1.08-1.05,0-2.01.18-2.89.54-.88.36-1.64.9-2.27,1.62-.63.72-1.09,1.64-1.38,2.76l-6.86-2.11c.43-1.48,1.05-2.76,1.86-3.84.81-1.08,1.79-1.99,2.95-2.73,1.15-.74,2.47-1.29,3.95-1.65,1.48-.36,3.08-.54,4.81-.54,2.77,0,5.03.44,6.78,1.32,1.75.88,3.05,2.25,3.92,4.11.86,1.86,1.3,4.24,1.3,7.16v4.86c0,1.26.03,2.54.08,3.84.05,1.3.13,2.6.22,3.92s.19,2.62.3,3.92h-6.86c-.14-.9-.28-1.94-.41-3.11-.13-1.17-.23-2.35-.3-3.54h-.97c-.5,1.37-1.23,2.61-2.16,3.73-.94,1.12-2.08,2.01-3.43,2.68-1.35.67-2.89,1-4.62,1ZM34.63,175.37c.68,0,1.38-.13,2.08-.38.7-.25,1.39-.6,2.05-1.05.67-.45,1.28-1.02,1.84-1.7.56-.68,1.02-1.46,1.38-2.32l-.11-4.54,1.24.27c-.65.47-1.41.84-2.27,1.11-.86.27-1.76.48-2.68.62-.92.14-1.83.31-2.73.49-.9.18-1.7.41-2.4.7-.7.29-1.26.68-1.68,1.16-.41.49-.62,1.16-.62,2.03,0,1.12.36,2,1.08,2.65.72.65,1.66.97,2.81.97Z"/><path fill="#1e1e1e" d="M69.44,180.99c-2.45,0-4.59-.36-6.43-1.08-1.84-.72-3.37-1.73-4.59-3.03s-2.14-2.84-2.76-4.62c-.61-1.78-.92-3.74-.92-5.86,0-2.23.32-4.28.95-6.13.63-1.86,1.56-3.47,2.78-4.84,1.22-1.37,2.74-2.43,4.54-3.19,1.8-.76,3.85-1.13,6.16-1.13s4.31.38,6.03,1.13c1.71.76,3.1,1.81,4.16,3.16,1.06,1.35,1.79,2.95,2.19,4.78l-7.19,2.32c-.11-1.12-.41-2.08-.89-2.89s-1.14-1.42-1.95-1.84-1.72-.62-2.73-.62-1.95.21-2.7.62c-.76.41-1.4,1.01-1.92,1.78-.52.78-.92,1.71-1.19,2.81-.27,1.1-.41,2.33-.41,3.7,0,1.95.26,3.59.78,4.95.52,1.35,1.3,2.38,2.32,3.08,1.03.7,2.3,1.05,3.81,1.05s2.59-.28,3.46-.84c.87-.56,1.5-1.28,1.92-2.16.41-.88.68-1.79.78-2.73l6.81,1.51c-.18,1.41-.57,2.72-1.16,3.95-.59,1.23-1.43,2.29-2.51,3.19s-2.39,1.61-3.92,2.13c-1.53.52-3.34.78-5.43.78Z"/><path fill="#1e1e1e" d="M93.76,180.99c-1.59,0-2.99-.32-4.22-.95-1.23-.63-2.18-1.54-2.86-2.73-.68-1.19-1.03-2.67-1.03-4.43,0-1.55.3-2.85.89-3.89.59-1.04,1.47-1.89,2.62-2.54,1.15-.65,2.58-1.19,4.27-1.62,1.69-.43,3.62-.81,5.78-1.14,1.15-.18,2.1-.35,2.84-.51.74-.16,1.29-.43,1.65-.81.36-.38.54-.93.54-1.65,0-1.01-.36-1.87-1.08-2.59-.72-.72-1.86-1.08-3.41-1.08-1.05,0-2.01.18-2.89.54-.88.36-1.64.9-2.27,1.62-.63.72-1.09,1.64-1.38,2.76l-6.86-2.11c.43-1.48,1.05-2.76,1.86-3.84.81-1.08,1.79-1.99,2.95-2.73,1.15-.74,2.47-1.29,3.95-1.65,1.48-.36,3.08-.54,4.81-.54,2.77,0,5.03.44,6.78,1.32,1.75.88,3.05,2.25,3.92,4.11.86,1.86,1.3,4.24,1.3,7.16v4.86c0,1.26.03,2.54.08,3.84.05,1.3.13,2.6.22,3.92s.19,2.62.3,3.92h-6.86c-.14-.9-.28-1.94-.41-3.11-.13-1.17-.23-2.35-.3-3.54h-.97c-.5,1.37-1.23,2.61-2.16,3.73-.94,1.12-2.08,2.01-3.43,2.68-1.35.67-2.89,1-4.62,1ZM97.06,175.37c.68,0,1.38-.13,2.08-.38.7-.25,1.39-.6,2.05-1.05.67-.45,1.28-1.02,1.84-1.7.56-.68,1.02-1.46,1.38-2.32l-.11-4.54,1.24.27c-.65.47-1.41.84-2.27,1.11-.86.27-1.76.48-2.68.62-.92.14-1.83.31-2.73.49-.9.18-1.7.41-2.4.7-.7.29-1.26.68-1.68,1.16-.41.49-.62,1.16-.62,2.03,0,1.12.36,2,1.08,2.65.72.65,1.66.97,2.81.97Z"/><path fill="#1e1e1e" d="M129.16,180.99c-2.38,0-4.46-.61-6.24-1.84-1.78-1.23-3.16-2.95-4.13-5.19-.97-2.23-1.46-4.88-1.46-7.95,0-2.88.43-5.44,1.3-7.68.86-2.23,2.14-3.98,3.84-5.24,1.69-1.26,3.8-1.89,6.32-1.89,1.84,0,3.39.34,4.65,1.03,1.26.68,2.3,1.69,3.11,3,.81,1.32,1.45,2.89,1.92,4.73h1.24c-.25-1.15-.48-2.28-.68-3.38-.2-1.1-.35-2.15-.46-3.16-.11-1.01-.16-1.89-.16-2.65v-9.19h7.78v38.65h-6.49v-8.22h-1.08c-.4,2.02-1.01,3.69-1.84,5.03-.83,1.33-1.88,2.32-3.16,2.97-1.28.65-2.77.97-4.46.97ZM131.76,174.62c1.19,0,2.2-.25,3.03-.76s1.51-1.16,2.05-1.97.94-1.69,1.19-2.65c.25-.95.38-1.85.38-2.68v-1.03c0-.68-.1-1.4-.3-2.14-.2-.74-.48-1.47-.84-2.19-.36-.72-.81-1.36-1.35-1.92-.54-.56-1.17-1-1.89-1.32-.72-.32-1.51-.49-2.38-.49-1.3,0-2.4.36-3.3,1.08-.9.72-1.6,1.72-2.11,3-.51,1.28-.76,2.77-.76,4.46s.26,3.24.78,4.54c.52,1.3,1.25,2.3,2.19,3s2.04,1.05,3.3,1.05Z"/><path fill="#1e1e1e" d="M155.54,180.24v-18.16h-4.49v-5.73l7.57.32v-1.03c-1.26-.29-2.3-.75-3.11-1.38-.81-.63-1.4-1.4-1.76-2.3-.36-.9-.54-1.86-.54-2.86,0-1.55.4-2.89,1.19-4.03.79-1.13,1.91-2.02,3.35-2.65,1.44-.63,3.13-.95,5.08-.95,1.66,0,3.16.21,4.51.62,1.35.41,2.44.93,3.27,1.54l-.49,7.03c-.87-.61-1.84-1.12-2.92-1.51-1.08-.4-2.11-.59-3.08-.59-1.08,0-1.97.29-2.67.86-.7.58-1.05,1.51-1.05,2.81,0,.9.19,1.61.57,2.14.38.52.85.9,1.41,1.13.56.23,1.11.39,1.65.46h6.49v6.11h-7.4v18.16h-7.57Z"/><path fill="#1e1e1e" d="M174.94,180.24v-38.65h7.68v38.65h-7.68Z"/><path fill="#1e1e1e" d="M202.62,180.99c-2.85,0-5.35-.57-7.51-1.7s-3.86-2.81-5.08-5.03c-1.22-2.22-1.84-4.98-1.84-8.3s.62-6.07,1.86-8.27c1.24-2.2,2.95-3.85,5.13-4.95s4.66-1.65,7.43-1.65,5.36.56,7.54,1.68c2.18,1.12,3.89,2.78,5.13,5,1.24,2.22,1.86,4.98,1.86,8.3s-.64,6.14-1.92,8.35c-1.28,2.22-3.01,3.86-5.19,4.95-2.18,1.08-4.66,1.62-7.43,1.62ZM202.89,175.21c1.41,0,2.59-.32,3.54-.97.95-.65,1.68-1.63,2.16-2.95.49-1.31.73-2.91.73-4.78,0-1.98-.26-3.67-.78-5.05-.52-1.39-1.29-2.45-2.3-3.19-1.01-.74-2.29-1.11-3.84-1.11-1.33,0-2.49.32-3.46.95-.97.63-1.71,1.6-2.22,2.92-.5,1.32-.76,2.93-.76,4.84,0,3.06.61,5.39,1.84,6.97,1.22,1.59,2.92,2.38,5.08,2.38Z"/><path fill="#1e1e1e" d="M226.78,180.24l-7.03-28.38h8.11l4,22.21h1.03l4.76-22.21h9.35l4.92,22.21h1.03l3.89-22.21h7.95l-7.08,28.38h-10.7l-4.43-22.05h-.92l-4.22,22.05h-10.65Z"/><path fill="#1e1e1e" d="M68.29,206.89l-2.83-8.31,1.65-.02,2.03,6.22-.36-.03,2.2-4.86h.98l2.22,4.87-.43.03,2.04-6.22h1.65l-2.8,8.31h-1.12l-2.31-5.29.36.05-2.15,5.24h-1.11Z"/><path fill="#1e1e1e" d="M78.91,206.89v-11.71h1.63v5.11l-.29.19c.11-.37.31-.71.62-1.02.31-.31.67-.56,1.09-.76.42-.2.85-.29,1.3-.29.63,0,1.16.12,1.58.37.42.25.74.62.95,1.13.21.51.32,1.14.32,1.91v5.06h-1.63v-4.95c0-.47-.06-.87-.19-1.18-.13-.31-.32-.54-.58-.68-.26-.14-.59-.2-.98-.18-.32,0-.61.05-.87.15-.26.1-.49.24-.69.42-.19.18-.35.39-.46.62-.11.24-.17.49-.17.77v5.03h-1.63Z"/><path fill="#1e1e1e" d="M92.2,207.05c-.85,0-1.61-.18-2.27-.55-.66-.36-1.18-.86-1.55-1.5-.37-.63-.56-1.36-.56-2.18,0-.65.1-1.25.32-1.79s.5-1,.88-1.4c.37-.4.82-.7,1.35-.92.52-.22,1.09-.32,1.7-.32.54,0,1.04.1,1.5.31.46.21.87.49,1.21.85.34.36.61.78.79,1.27.18.49.27,1.03.26,1.61l-.02.7h-6.79l-.36-1.3h5.74l-.24.27v-.38c-.03-.35-.15-.66-.35-.93-.2-.28-.45-.49-.76-.65-.31-.16-.64-.24-1-.24-.57,0-1.05.11-1.44.32-.39.22-.69.53-.89.95-.2.42-.3.93-.3,1.54,0,.58.12,1.08.36,1.51.24.43.59.76,1.03.99s.95.35,1.53.35c.41,0,.79-.07,1.15-.21s.74-.38,1.15-.74l.82,1.15c-.25.25-.56.47-.93.66-.36.19-.75.34-1.15.45-.41.11-.8.17-1.2.17Z"/><path fill="#1e1e1e" d="M97.6,206.89v-8.31h1.65v2.61l-.16-.63c.12-.4.31-.76.59-1.09.28-.33.6-.59.97-.77.36-.19.74-.29,1.13-.29.18,0,.35.02.51.05.16.03.29.07.39.11l-.43,1.77c-.13-.05-.27-.1-.42-.13-.15-.04-.3-.06-.45-.06-.28,0-.56.06-.82.17-.26.11-.48.26-.68.46-.19.2-.35.42-.47.68-.12.26-.17.54-.17.85v4.59h-1.65Z"/><path fill="#1e1e1e" d="M107.5,207.05c-.86,0-1.61-.18-2.27-.55-.66-.36-1.18-.86-1.55-1.5-.37-.63-.56-1.36-.56-2.18,0-.65.1-1.25.32-1.79s.5-1,.88-1.4c.37-.4.82-.7,1.35-.92.52-.22,1.09-.32,1.7-.32.54,0,1.04.1,1.5.31s.87.49,1.21.85.61.78.79,1.27.27,1.03.26,1.61l-.02.7h-6.79l-.36-1.3h5.75l-.24.27v-.38c-.03-.35-.15-.66-.35-.93-.2-.28-.45-.49-.76-.65-.31-.16-.64-.24-1-.24-.57,0-1.05.11-1.44.32-.39.22-.69.53-.89.95-.2.42-.3.93-.3,1.54,0,.58.12,1.08.36,1.51.24.43.59.76,1.03.99.44.23.95.35,1.53.35.41,0,.79-.07,1.15-.21s.74-.38,1.15-.74l.82,1.15c-.25.25-.56.47-.93.66-.36.19-.75.34-1.16.45-.4.11-.8.17-1.19.17Z"/><path fill="#1e1e1e" d="M117.36,206.89v-11.71h1.63v11.71h-1.63Z"/><path fill="#1e1e1e" d="M125.02,207.05c-.85,0-1.61-.18-2.27-.55-.66-.36-1.18-.86-1.55-1.5-.37-.63-.56-1.36-.56-2.18,0-.65.1-1.25.32-1.79s.5-1,.88-1.4c.37-.4.82-.7,1.35-.92.52-.22,1.09-.32,1.7-.32.54,0,1.04.1,1.5.31s.87.49,1.21.85.61.78.79,1.27.27,1.03.26,1.61l-.02.7h-6.79l-.36-1.3h5.75l-.24.27v-.38c-.03-.35-.15-.66-.35-.93-.2-.28-.45-.49-.76-.65-.31-.16-.64-.24-1-.24-.57,0-1.05.11-1.44.32-.39.22-.68.53-.89.95-.2.42-.3.93-.3,1.54,0,.58.12,1.08.36,1.51.24.43.59.76,1.03.99.44.23.95.35,1.53.35.41,0,.79-.07,1.15-.21s.74-.38,1.15-.74l.82,1.15c-.25.25-.56.47-.93.66-.36.19-.75.34-1.16.45-.4.11-.8.17-1.19.17Z"/><path fill="#1e1e1e" d="M133.62,207.05c-.69,0-1.31-.19-1.88-.57-.57-.38-1.01-.9-1.35-1.55-.34-.65-.51-1.39-.51-2.22s.17-1.57.51-2.22.81-1.16,1.39-1.53c.59-.37,1.24-.55,1.97-.55.43,0,.83.06,1.19.19.36.13.67.3.94.53.27.23.49.49.67.78.17.3.28.61.32.95l-.36-.13v-2.15h1.65v8.31h-1.65v-1.98l.38-.11c-.06.29-.19.56-.39.83-.2.27-.44.51-.74.72s-.63.38-1,.51-.75.19-1.15.19ZM134.04,205.55c.49,0,.93-.12,1.31-.36.38-.24.68-.58.89-1,.22-.43.33-.92.33-1.46s-.11-1.02-.33-1.44c-.21-.42-.51-.75-.89-1-.38-.24-.82-.36-1.31-.36s-.92.12-1.29.36c-.37.24-.67.58-.89,1-.22.42-.33.9-.33,1.44s.11,1.04.33,1.46c.22.43.51.76.89,1s.81.36,1.29.36Z"/><path fill="#1e1e1e" d="M140.43,206.89v-8.31h1.65v2.61l-.16-.63c.12-.4.31-.76.59-1.09.28-.33.6-.59.96-.77.36-.19.74-.29,1.13-.29.18,0,.35.02.51.05.16.03.29.07.39.11l-.43,1.77c-.13-.05-.27-.1-.42-.13-.15-.04-.3-.06-.45-.06-.29,0-.56.06-.82.17-.26.11-.49.26-.68.46-.19.2-.35.42-.47.68-.12.26-.17.54-.17.85v4.59h-1.65Z"/><path fill="#1e1e1e" d="M146.81,206.89v-8.31h1.63v1.71l-.29.19c.11-.37.31-.71.62-1.02.31-.31.67-.56,1.09-.76s.86-.29,1.3-.29c.63,0,1.16.12,1.58.37.42.25.74.62.95,1.13.21.51.32,1.14.32,1.91v5.06h-1.63v-4.95c0-.47-.06-.87-.19-1.18-.13-.31-.32-.54-.59-.68-.27-.14-.59-.2-.98-.18-.32,0-.61.05-.87.15-.26.1-.49.24-.69.42-.2.18-.35.39-.46.62s-.17.49-.17.77v5.03h-1.63Z"/><path fill="#1e1e1e" d="M157.29,196.75c-.35,0-.62-.09-.81-.27-.19-.18-.29-.43-.29-.76,0-.31.1-.55.29-.74.19-.19.46-.28.8-.28s.62.09.81.27.29.43.29.76c0,.31-.1.55-.29.74-.19.19-.46.28-.8.28ZM156.49,206.89v-8.31h1.63v8.31h-1.63Z"/><path fill="#1e1e1e" d="M160.62,206.89v-8.31h1.63v1.71l-.29.19c.11-.37.31-.71.62-1.02.31-.31.67-.56,1.09-.76s.86-.29,1.3-.29c.63,0,1.16.12,1.58.37.42.25.74.62.95,1.13.21.51.32,1.14.32,1.91v5.06h-1.63v-4.95c0-.47-.06-.87-.19-1.18-.13-.31-.32-.54-.59-.68-.27-.14-.59-.2-.98-.18-.32,0-.61.05-.87.15-.26.1-.49.24-.69.42-.2.18-.35.39-.46.62s-.17.49-.17.77v5.03h-1.63Z"/><path fill="#1e1e1e" d="M173.76,210.53c-.59,0-1.18-.09-1.76-.28-.59-.18-1.06-.42-1.42-.72l.6-1.27c.21.16.46.3.74.42s.59.22.9.29c.32.07.63.1.93.1.58,0,1.07-.09,1.45-.28.39-.19.69-.47.89-.84.2-.37.3-.83.3-1.38v-1.6l.17.11c-.05.33-.22.64-.51.94-.29.3-.65.55-1.09.74-.43.19-.88.28-1.33.28-.79,0-1.5-.19-2.11-.56-.62-.37-1.11-.89-1.46-1.53s-.54-1.39-.54-2.22.18-1.58.53-2.22.84-1.16,1.45-1.53c.62-.37,1.31-.56,2.08-.56.32,0,.62.04.92.12s.57.19.82.33c.25.14.48.3.68.47s.36.35.49.54c.13.19.21.37.24.54l-.35.13v-1.95h1.63v7.8c0,.66-.1,1.25-.29,1.76-.19.51-.48.94-.85,1.3-.37.35-.82.62-1.35.81s-1.12.28-1.79.28ZM173.82,205.55c.51,0,.97-.12,1.38-.36s.71-.58.93-1,.33-.91.33-1.46-.11-1.04-.34-1.46c-.23-.43-.54-.76-.93-1s-.85-.36-1.37-.36-.96.12-1.35.37c-.4.25-.71.59-.93,1.01-.23.43-.34.91-.34,1.45s.11,1.02.34,1.45c.23.43.54.76.93,1,.39.24.85.36,1.35.36Z"/><path fill="#1e1e1e" d="M184.31,200.23v-1.5h4.94v1.5h-4.94ZM185.64,206.89v-9.24c0-.47.1-.9.32-1.27.21-.37.5-.66.87-.87.37-.21.8-.32,1.28-.32.34,0,.65.06.95.19s.53.3.71.51l-.56,1.25c-.14-.13-.29-.23-.45-.31-.16-.08-.32-.12-.47-.12-.22,0-.41.04-.56.1-.15.07-.27.17-.34.32-.08.14-.11.31-.11.51v9.24h-1.65ZM190.99,206.89v-11.71h1.63v11.71h-1.63Z"/><path fill="#1e1e1e" d="M198.51,207.05c-.81,0-1.54-.19-2.18-.56-.64-.37-1.14-.89-1.51-1.53s-.55-1.39-.55-2.22.18-1.58.55-2.22.87-1.16,1.51-1.53,1.36-.56,2.18-.56,1.52.19,2.16.56c.64.37,1.14.89,1.51,1.53s.56,1.39.56,2.22-.19,1.57-.56,2.22-.87,1.16-1.51,1.53c-.64.37-1.36.56-2.16.56ZM198.51,205.56c.49,0,.94-.12,1.33-.37.39-.25.7-.59.92-1.01.22-.43.33-.91.32-1.45.01-.55-.09-1.04-.32-1.46-.22-.43-.53-.76-.92-1-.39-.24-.83-.36-1.33-.36s-.94.12-1.34.37c-.4.25-.7.59-.93,1.01-.22.43-.33.91-.32,1.45-.01.54.1,1.02.32,1.45.22.43.53.76.93,1.01.4.25.84.37,1.34.37Z"/><path fill="#1e1e1e" d="M206.23,206.89l-2.83-8.31,1.65-.02,2.02,6.22-.36-.03,2.2-4.86h.98l2.22,4.87-.43.03,2.04-6.22h1.65l-2.8,8.31h-1.13l-2.31-5.29.36.05-2.15,5.24h-1.11Z"/><path fill="#1e1e1e" d="M219.54,207.05c-.69,0-1.32-.12-1.88-.36-.56-.24-1.02-.6-1.39-1.08l1.11-.95c.32.37.66.64,1.03.8.37.16.8.25,1.27.25.19,0,.37-.02.53-.07.16-.05.31-.12.43-.21s.21-.21.28-.34c.06-.13.09-.28.09-.43,0-.28-.1-.5-.3-.67-.11-.07-.27-.16-.5-.24s-.52-.18-.88-.28c-.61-.16-1.11-.34-1.5-.54-.39-.2-.69-.43-.9-.68-.16-.2-.28-.42-.35-.66s-.11-.5-.11-.78c0-.35.08-.67.23-.96.15-.29.36-.54.63-.76.27-.22.59-.38.95-.5s.75-.17,1.16-.17c.39,0,.78.05,1.16.16.38.11.74.26,1.07.46.33.2.6.44.82.71l-.93,1.03c-.2-.2-.42-.38-.66-.53s-.48-.27-.72-.36-.46-.13-.66-.13c-.22,0-.42.02-.6.06-.18.04-.33.1-.45.19s-.21.19-.28.32c-.07.13-.1.27-.1.43.01.14.05.27.1.39s.14.22.24.31c.12.08.29.17.52.27s.53.19.89.27c.53.14.96.29,1.31.45.34.16.61.35.82.56.21.2.36.43.44.7.09.26.13.56.13.89,0,.47-.13.9-.4,1.27-.27.37-.63.67-1.09.88s-.96.32-1.52.32Z"/><path fill="#1e1e1e" d="M183.74,93.35c-12.98-5.26-25.87-10.49-38.67-15.69-.65-.27-1.39-.27-2.05,0l-39.05,15.86c-.16.07-.26.25-.2.42.05.19.22.36.52.47,12.65,5.13,25.51,10.34,38.55,15.66.79.33,1.66.33,2.46.01l16.59-6.74c.14-.06.3.04.3.19v9.85c0,.18-.11.34-.28.41l-16.9,6.86c-.61.25-1.29.25-1.9,0l-16.31-6.63c-.45-.18-.75-.62-.75-1.11v-4.96c0-.46-.28-.87-.68-1.03l-3.35-1.36c-.44-.17-.66-.03-.66.44v10.16c0,.43.27.83.67.99l20.52,8.34c.98.39,2.06.39,3.03,0l20.46-8.31c.47-.19.7-.54.7-1.05v-15.75c0-.47-.26-.89-.66-1.11-1.83-.98-3.03-1.46-5.27-.55-4.45,1.8-9.61,3.89-15.48,6.29-.79.33-1.68.33-2.47,0l-26.28-10.68c-.73-.3-.73-.58,0-.88l9.47-3.85c.42-.16.83-.16,1.24,0l17.18,6.98c.83.34,1.65.33,2.48-.04l3.49-1.54c.83-.37.83-.73-.01-1.06l-16.38-6.66c-.78-.32-.78-.63,0-.95l8.48-3.44c1.01-.41,2.02-.41,3.03,0l26.64,10.82c.34.13.55.46.55.82.02,5.59,0,12.71-.05,21.37,0,.2-.04.36-.06.54-1.69.63-2.9,2.24-2.9,4.15,0,2.45,1.99,4.44,4.44,4.44s4.44-1.99,4.44-4.44c0-2.02-1.36-3.7-3.2-4.24-.05-.37-.07-.76-.07-1.16-.01-7.12,0-12.63.03-16.53.01-.54.34-1.03.84-1.23l7.74-3.02c.05-.02.1-.05.14-.1.31-.42.18-.75-.36-.96Z"/></svg>