<svg xmlns="http://www.w3.org/2000/svg" xmlns:xlink="http://www.w3.org/1999/xlink" viewBox="22.8 121.3 234.8 53.7"><defs><linearGradient id="lhm-grad" x1="-448.61" y1="-86.86" x2="639.68" y2="412.01" gradientUnits="userSpaceOnUse"><stop offset="0" stop-color="#8b5cf6"/><stop offset="1" stop-color="#6366f1"/></linearGradient></defs><path fill="#1e1e1e" d="M108.11,152.02c-.98,0-1.85-.19-2.6-.58-.76-.39-1.35-.95-1.77-1.68-.42-.73-.63-1.65-.63-2.74,0-.96.18-1.76.55-2.4.37-.64.91-1.17,1.62-1.57.71-.4,1.59-.73,2.64-1,1.05-.27,2.24-.5,3.57-.7.71-.11,1.3-.22,1.75-.32.46-.1.8-.27,1.02-.5.22-.23.33-.57.33-1.02,0-.62-.22-1.16-.67-1.6-.45-.45-1.15-.67-2.1-.67-.65,0-1.24.11-1.78.33-.55.22-1.01.56-1.4,1-.39.45-.67,1.01-.85,1.7l-4.24-1.3c.27-.91.65-1.7,1.15-2.37.5-.67,1.11-1.23,1.82-1.69.71-.46,1.52-.8,2.44-1.02.91-.22,1.9-.33,2.97-.33,1.71,0,3.11.27,4.19.82,1.08.55,1.88,1.39,2.42,2.54.53,1.15.8,2.62.8,4.42v3c0,.78.02,1.57.05,2.37.03.8.08,1.61.13,2.42s.12,1.62.18,2.42h-4.24c-.09-.56-.17-1.2-.25-1.92-.08-.72-.14-1.45-.18-2.19h-.6c-.31.85-.76,1.61-1.33,2.3-.58.69-1.28,1.24-2.12,1.65-.83.41-1.78.62-2.85.62ZM110.14,148.55c.42,0,.85-.08,1.28-.23.43-.16.86-.37,1.27-.65.41-.28.79-.63,1.13-1.05.34-.42.63-.9.85-1.43l-.07-2.8.77.17c-.4.29-.87.52-1.4.68-.53.17-1.08.29-1.65.38-.57.09-1.13.19-1.68.3-.56.11-1.05.26-1.48.43-.43.18-.78.42-1.03.72-.26.3-.38.72-.38,1.25,0,.69.22,1.23.67,1.63.44.4,1.02.6,1.73.6Z"/><path fill="#1e1e1e" d="M131.63,152.02c-1.51,0-2.84-.22-3.97-.67-1.13-.44-2.08-1.07-2.84-1.87s-1.32-1.75-1.7-2.85c-.38-1.1-.57-2.31-.57-3.62,0-1.38.19-2.64.58-3.79.39-1.15.96-2.14,1.72-2.99.76-.85,1.69-1.5,2.8-1.97,1.11-.47,2.38-.7,3.8-.7s2.66.23,3.72.7c1.06.47,1.91,1.12,2.57,1.95.66.83,1.11,1.82,1.35,2.95l-4.44,1.43c-.07-.69-.25-1.28-.55-1.79s-.7-.88-1.2-1.13-1.06-.38-1.68-.38-1.2.13-1.67.38c-.47.26-.86.62-1.18,1.1-.32.48-.57,1.06-.73,1.73-.17.68-.25,1.44-.25,2.29,0,1.2.16,2.22.48,3.05.32.83.8,1.47,1.43,1.9.63.43,1.42.65,2.35.65s1.6-.17,2.13-.52c.53-.34.93-.79,1.18-1.33.26-.54.42-1.11.48-1.68l4.2.93c-.11.87-.35,1.68-.72,2.44-.37.76-.88,1.41-1.55,1.97s-1.47,1-2.42,1.32c-.95.32-2.06.48-3.35.48Z"/><path fill="#1e1e1e" d="M146.64,152.02c-.98,0-1.85-.19-2.6-.58-.76-.39-1.35-.95-1.77-1.68-.42-.73-.63-1.65-.63-2.74,0-.96.18-1.76.55-2.4.37-.64.91-1.17,1.62-1.57.71-.4,1.59-.73,2.64-1,1.05-.27,2.24-.5,3.57-.7.71-.11,1.3-.22,1.75-.32.46-.1.8-.27,1.02-.5.22-.23.33-.57.33-1.02,0-.62-.22-1.16-.67-1.6-.45-.45-1.15-.67-2.1-.67-.65,0-1.24.11-1.78.33-.55.22-1.01.56-1.4,1-.39.45-.67,1.01-.85,1.7l-4.24-1.3c.27-.91.65-1.7,1.15-2.37.5-.67,1.11-1.23,1.82-1.69.71-.46,1.52-.8,2.44-1.02.91-.22,1.9-.33,2.97-.33,1.71,0,3.11.27,4.19.82,1.08.55,1.88,1.39,2.42,2.54.53,1.15.8,2.62.8,4.42v3c0,.78.02,1.57.05,2.37.03.8.08,1.61.13,2.42s.12,1.62.18,2.42h-4.24c-.09-.56-.17-1.2-.25-1.92-.08-.72-.14-1.45-.18-2.19h-.6c-.31.85-.76,1.61-1.33,2.3-.58.69-1.28,1.24-2.12,1.65-.83.41-1.78.62-2.85.62ZM148.67,148.55c.42,0,.85-.08,1.28-.23.43-.16.86-.37,1.27-.65.41-.28.79-.63,1.13-1.05.34-.42.63-.9.85-1.43l-.07-2.8.77.17c-.4.29-.87.52-1.4.68-.53.17-1.08.29-1.65.38-.57.09-1.13.19-1.68.3-.56.11-1.05.26-1.48.43-.43.18-.78.42-1.03.72-.26.3-.38.72-.38,1.25,0,.69.22,1.23.67,1.63.44.4,1.02.6,1.73.6Z"/><path fill="#1e1e1e" d="M168.49,152.02c-1.47,0-2.75-.38-3.85-1.13-1.1-.76-1.95-1.82-2.55-3.2-.6-1.38-.9-3.01-.9-4.9,0-1.78.27-3.36.8-4.74.53-1.38,1.32-2.46,2.37-3.24,1.05-.78,2.35-1.17,3.9-1.17,1.13,0,2.09.21,2.87.63.78.42,1.42,1.04,1.92,1.85.5.81.89,1.79,1.18,2.92h.77c-.16-.71-.29-1.41-.42-2.09-.12-.68-.22-1.33-.28-1.95-.07-.62-.1-1.17-.1-1.63v-5.67h4.8v23.85h-4v-5.07h-.67c-.25,1.25-.62,2.28-1.13,3.1-.51.82-1.16,1.43-1.95,1.83-.79.4-1.71.6-2.75.6ZM170.09,148.08c.73,0,1.36-.16,1.87-.47s.93-.72,1.27-1.22.58-1.05.73-1.63c.16-.59.23-1.14.23-1.65v-.63c0-.42-.06-.86-.18-1.32-.12-.46-.29-.91-.52-1.35-.22-.44-.5-.84-.83-1.18-.33-.34-.72-.62-1.17-.82-.45-.2-.93-.3-1.47-.3-.8,0-1.48.22-2.04.67-.56.45-.99,1.06-1.3,1.85-.31.79-.47,1.71-.47,2.75s.16,2,.48,2.8c.32.8.77,1.42,1.35,1.85s1.26.65,2.04.65Z"/><path fill="#1e1e1e" d="M184.77,151.55v-11.21h-2.77v-3.54l4.67.2v-.63c-.78-.18-1.42-.46-1.92-.85-.5-.39-.86-.86-1.08-1.42-.22-.56-.33-1.15-.33-1.77,0-.96.24-1.79.73-2.49.49-.7,1.18-1.25,2.07-1.63.89-.39,1.93-.58,3.14-.58,1.02,0,1.95.13,2.79.38.83.26,1.51.57,2.02.95l-.3,4.34c-.53-.38-1.13-.69-1.8-.93-.67-.24-1.3-.37-1.9-.37-.67,0-1.22.18-1.65.53-.43.36-.65.93-.65,1.73,0,.56.12,1,.35,1.32.23.32.52.56.87.7.34.14.68.24,1.02.28h4v3.77h-4.57v11.21h-4.67Z"/><path fill="#1e1e1e" d="M196.75,151.55v-23.85h4.74v23.85h-4.74Z"/><path fill="#1e1e1e" d="M213.83,152.02c-1.76,0-3.3-.35-4.64-1.05s-2.38-1.73-3.14-3.1c-.76-1.37-1.13-3.07-1.13-5.12s.38-3.75,1.15-5.1c.77-1.36,1.82-2.37,3.17-3.05s2.87-1.02,4.59-1.02,3.31.35,4.65,1.03c1.35.69,2.4,1.72,3.17,3.09.77,1.37,1.15,3.07,1.15,5.12s-.4,3.79-1.18,5.15c-.79,1.37-1.86,2.39-3.2,3.05-1.35.67-2.88,1-4.59,1ZM214,148.45c.87,0,1.6-.2,2.19-.6.59-.4,1.03-1.01,1.33-1.82.3-.81.45-1.8.45-2.95,0-1.22-.16-2.26-.48-3.12-.32-.86-.8-1.51-1.42-1.97-.62-.46-1.41-.68-2.37-.68-.82,0-1.53.2-2.14.58-.6.39-1.06.99-1.37,1.8-.31.81-.47,1.81-.47,2.99,0,1.89.38,3.33,1.13,4.3.76.98,1.8,1.47,3.14,1.47Z"/><path fill="#1e1e1e" d="M228.74,151.55l-4.34-17.52h5l2.47,13.71h.63l2.94-13.71h5.77l3.04,13.71h.63l2.4-13.71h4.9l-4.37,17.52h-6.61l-2.74-13.61h-.57l-2.6,13.61h-6.57Z"/><path d="M130.83,167.07l-1.75-5.14h1.02s1.25,3.84,1.25,3.84l-.23-.02,1.36-3h.61l1.37,3.01-.26.02,1.26-3.85h1.02l-1.73,5.14h-.69l-1.43-3.27.23.03-1.33,3.24h-.69Z"/><path d="M137.4,167.07v-7.24h1.01v3.16l-.18.12c.07-.23.19-.44.38-.63.19-.19.41-.35.68-.47.26-.12.53-.18.8-.18.39,0,.72.08.98.23.26.15.46.39.59.7.13.31.2.71.2,1.18v3.13h-1.01v-3.06c0-.29-.04-.54-.12-.73-.08-.19-.2-.33-.36-.42-.16-.09-.37-.13-.61-.11-.2,0-.37.03-.54.09-.16.06-.31.15-.43.26-.12.11-.22.24-.28.39-.07.15-.1.31-.1.47v3.11h-1.01Z"/><path d="M145.62,167.17c-.53,0-1-.11-1.4-.34-.41-.23-.73-.53-.96-.92-.23-.39-.35-.84-.35-1.35,0-.4.06-.77.2-1.11s.31-.62.54-.87c.23-.25.51-.43.83-.57.32-.13.67-.2,1.05-.2.33,0,.64.06.93.19.29.13.54.3.75.52.21.22.37.48.49.79.11.3.17.63.16.99v.43h-4.21l-.22-.8h3.55l-.15.17v-.23c-.02-.22-.09-.41-.22-.58-.12-.17-.28-.3-.47-.4-.19-.1-.39-.15-.62-.15-.35,0-.65.07-.89.2-.24.13-.42.33-.55.59-.12.26-.19.58-.19.95,0,.36.07.67.23.93.15.26.36.47.64.61s.59.22.95.22c.25,0,.49-.04.71-.13s.46-.24.71-.46l.51.71c-.16.16-.35.29-.57.41-.22.12-.46.21-.71.28-.25.07-.5.1-.74.1Z"/><path d="M148.95,167.07v-5.14h1.02v1.61l-.1-.39c.07-.25.19-.47.37-.68.17-.2.37-.36.6-.48.23-.12.46-.18.7-.18.11,0,.22,0,.32.03.1.02.18.04.24.07l-.26,1.1c-.08-.03-.16-.06-.26-.08-.1-.02-.19-.03-.28-.03-.18,0-.34.03-.5.1-.16.07-.3.16-.42.28-.12.12-.22.26-.29.42-.07.16-.11.33-.11.52v2.84h-1.02Z"/><path d="M155.08,167.17c-.53,0-1-.11-1.4-.34-.41-.23-.73-.53-.96-.92-.23-.39-.35-.84-.35-1.35,0-.4.06-.77.2-1.11s.31-.62.54-.87c.23-.25.51-.43.83-.57.32-.13.67-.2,1.05-.2.33,0,.64.06.93.19s.54.3.75.52.37.48.49.79.17.63.16.99v.43h-4.21l-.22-.8h3.55l-.15.17v-.23c-.02-.22-.09-.41-.22-.58-.12-.17-.28-.3-.47-.4-.19-.1-.39-.15-.62-.15-.35,0-.65.07-.89.2-.24.13-.42.33-.55.59-.12.26-.19.58-.19.95,0,.36.07.67.23.93.15.26.36.47.64.61.27.14.59.22.95.22.25,0,.49-.04.71-.13s.46-.24.71-.46l.51.71c-.16.16-.35.29-.57.41-.22.12-.46.21-.71.28-.25.07-.5.1-.74.1Z"/><path d="M161.18,167.07v-7.24h1.01v7.24h-1.01Z"/><path d="M165.91,167.17c-.53,0-1-.11-1.4-.34-.41-.23-.73-.53-.96-.92-.23-.39-.35-.84-.35-1.35,0-.4.06-.77.2-1.11s.31-.62.54-.87c.23-.25.51-.43.83-.57.32-.13.67-.2,1.05-.2.33,0,.64.06.93.19s.54.3.75.52.37.48.49.79.17.63.16.99v.43h-4.21l-.22-.8h3.55l-.15.17v-.23c-.02-.22-.09-.41-.22-.58-.12-.17-.28-.3-.47-.4-.19-.1-.39-.15-.62-.15-.35,0-.65.07-.89.2-.24.13-.42.33-.55.59-.12.26-.19.58-.19.95,0,.36.07.67.22.93.15.26.36.47.64.61.27.14.59.22.95.22.25,0,.49-.04.71-.13s.46-.24.71-.46l.51.71c-.16.16-.35.29-.57.41-.22.12-.46.21-.71.28-.25.07-.5.1-.74.1Z"/><path d="M171.23,167.17c-.42,0-.81-.12-1.16-.35-.35-.23-.63-.55-.84-.96-.21-.4-.31-.86-.31-1.37s.11-.97.32-1.37.5-.72.86-.94c.36-.23.77-.34,1.22-.34.27,0,.51.04.73.12.22.08.42.19.58.33.17.14.3.3.41.48.11.18.17.38.2.59l-.22-.08v-1.33h1.02v5.14h-1.02v-1.22l.23-.07c-.04.18-.12.35-.24.51-.12.17-.27.32-.46.45s-.39.23-.62.31-.46.12-.71.12ZM171.49,166.24c.31,0,.58-.07.81-.22.24-.15.42-.36.55-.62.13-.26.2-.57.2-.91s-.07-.63-.2-.89c-.13-.26-.32-.47-.55-.62-.23-.15-.51-.22-.81-.22s-.57.07-.8.22c-.23.15-.41.36-.55.62-.13.26-.2.56-.2.89s.07.64.2.91c.13.26.32.47.55.62s.5.22.8.22Z"/><path d="M175.44,167.07v-5.14h1.02v1.61l-.1-.39c.07-.25.19-.47.37-.68.17-.2.37-.36.6-.48.22-.12.46-.18.7-.18.11,0,.22,0,.32.03.1.02.18.04.24.07l-.27,1.1c-.08-.03-.16-.06-.26-.08-.09-.02-.19-.03-.28-.03-.18,0-.34.03-.5.1-.16.07-.3.16-.42.28-.12.12-.22.26-.29.42-.07.16-.11.33-.11.52v2.84h-1.02Z"/><path d="M179.39,167.07v-5.14h1.01v1.06l-.18.12c.07-.23.19-.44.38-.63.19-.19.41-.35.67-.47s.53-.18.8-.18c.39,0,.72.08.98.23.26.15.46.39.59.7.13.31.2.71.2,1.18v3.13h-1.01v-3.06c0-.29-.04-.54-.12-.73-.08-.19-.2-.33-.36-.42-.16-.09-.37-.13-.61-.11-.2,0-.37.03-.54.09-.16.06-.3.15-.42.26-.12.11-.22.24-.28.39s-.1.31-.1.47v3.11h-1.01Z"/><path d="M185.86,160.8c-.22,0-.38-.05-.5-.17-.12-.11-.18-.27-.18-.47,0-.19.06-.34.18-.46.12-.12.29-.18.49-.18s.38.06.5.17.18.27.18.47c0,.19-.06.34-.18.46-.12.12-.29.18-.49.18ZM185.38,167.07v-5.14h1.01v5.14h-1.01Z"/><path d="M187.93,167.07v-5.14h1.01v1.06l-.18.12c.07-.23.19-.44.38-.63.19-.19.41-.35.67-.47s.53-.18.8-.18c.39,0,.72.08.98.23.26.15.46.39.59.7.13.31.2.71.2,1.18v3.13h-1.01v-3.06c0-.29-.04-.54-.12-.73-.08-.19-.2-.33-.36-.42-.16-.09-.37-.13-.61-.11-.2,0-.37.03-.54.09-.16.06-.3.15-.42.26-.12.11-.22.24-.28.39s-.1.31-.1.47v3.11h-1.01Z"/><path d="M196.05,169.32c-.37,0-.73-.06-1.09-.17-.36-.11-.65-.26-.88-.44l.37-.78c.13.1.28.18.46.26s.36.13.56.18c.2.04.39.06.58.06.36,0,.66-.06.9-.18.24-.12.42-.29.55-.52.12-.23.19-.51.19-.85v-.99l.11.07c-.03.2-.14.4-.32.58-.18.19-.4.34-.67.46-.27.12-.54.18-.82.18-.49,0-.93-.12-1.31-.35-.38-.23-.68-.55-.91-.95s-.33-.86-.33-1.37.11-.97.33-1.38.52-.72.9-.95c.38-.23.81-.35,1.29-.35.2,0,.38.02.57.07s.35.12.51.21c.16.09.3.18.42.29s.22.22.3.33c.08.12.13.23.15.33l-.22.08v-1.2h1.01v4.82c0,.41-.06.77-.18,1.09-.12.32-.3.58-.52.8-.23.22-.51.38-.83.5s-.69.17-1.11.17ZM196.09,166.24c.32,0,.6-.07.85-.22s.44-.36.58-.62.2-.56.2-.9-.07-.64-.21-.91c-.14-.26-.33-.47-.58-.62s-.53-.23-.85-.23-.59.08-.84.23c-.25.15-.44.36-.58.63-.14.26-.21.56-.21.9s.07.63.21.9c.14.26.33.47.58.62.24.15.52.22.84.22Z"/><path d="M202.58,162.95v-.93h3.05v.93h-3.05ZM203.4,167.07v-5.71c0-.29.06-.55.2-.78.13-.23.31-.41.54-.54.23-.13.49-.2.79-.2.21,0,.4.04.59.12s.33.18.44.31l-.34.77c-.08-.08-.18-.14-.28-.19-.1-.05-.2-.07-.29-.07-.14,0-.25.02-.35.06-.09.04-.16.11-.21.2-.05.09-.07.19-.07.32v5.71h-1.02ZM206.71,167.07v-7.24h1.01v7.24h-1.01Z"/><path d="M211.36,167.17c-.5,0-.95-.12-1.35-.35-.39-.23-.71-.55-.94-.95s-.34-.86-.34-1.37.11-.97.34-1.38.54-.72.94-.95.84-.35,1.35-.35.94.12,1.33.35c.39.23.71.55.94.95s.34.86.34,1.38-.12.97-.34,1.37-.54.72-.94.95c-.39.23-.84.35-1.33.35ZM211.36,166.25c.31,0,.58-.08.82-.23.24-.15.43-.36.57-.63.14-.26.2-.56.2-.9,0-.34-.06-.64-.2-.91-.14-.26-.33-.47-.57-.62-.24-.15-.52-.23-.82-.23s-.58.08-.83.23c-.25.15-.44.36-.57.63-.14.26-.2.56-.2.9,0,.33.06.63.2.9.14.26.33.47.57.63.25.15.52.23.83.23Z"/><path d="M216.13,167.07l-1.75-5.14h1.02s1.25,3.84,1.25,3.84l-.22-.02,1.36-3h.61l1.37,3.01-.27.02,1.26-3.85h1.02l-1.73,5.14h-.7l-1.43-3.27.22.03-1.33,3.24h-.69Z"/><path d="M224.36,167.17c-.43,0-.82-.07-1.16-.22-.34-.15-.63-.37-.86-.67l.69-.59c.2.23.41.39.64.49.23.1.49.15.79.15.12,0,.23-.01.33-.04.1-.03.19-.07.26-.13s.13-.13.17-.21c.04-.08.06-.17.06-.27,0-.17-.06-.31-.19-.41-.07-.05-.17-.1-.31-.15s-.32-.11-.54-.17c-.38-.1-.69-.21-.93-.33-.24-.12-.43-.26-.56-.42-.1-.12-.17-.26-.22-.41s-.07-.31-.07-.48c0-.22.05-.41.14-.59.1-.18.22-.34.39-.47.17-.13.36-.24.59-.31s.47-.11.72-.11c.24,0,.48.03.72.1.24.07.46.16.66.28.2.12.37.27.51.44l-.58.64c-.12-.12-.26-.23-.41-.33s-.3-.17-.45-.22-.29-.08-.41-.08c-.14,0-.26.01-.37.04-.11.03-.2.06-.28.12s-.13.12-.17.2c-.04.08-.06.17-.06.26,0,.09.03.17.06.24s.09.14.15.19c.07.05.18.11.32.17s.33.11.55.17c.33.09.59.18.81.28.21.1.38.22.5.35.13.12.22.27.27.43.05.16.08.35.08.55,0,.29-.08.56-.25.79-.17.23-.39.41-.67.54s-.59.2-.94.2Z"/><path fill="url(#lhm-grad)" d="M93.96,140.59c-10.59-4.29-21.11-8.56-31.56-12.8-.53-.22-1.13-.22-1.68,0l-31.87,12.94c-.13.06-.21.2-.17.34.04.16.18.29.43.38,10.33,4.18,20.82,8.44,31.46,12.78.64.27,1.36.27,2.01,0l13.54-5.5c.12-.05.24.03.24.16v8.04c0,.15-.09.27-.23.33l-13.79,5.6c-.5.2-1.05.2-1.55,0l-13.31-5.41c-.37-.15-.61-.51-.61-.91v-4.05c0-.38-.23-.71-.56-.84l-2.73-1.11c-.36-.14-.54-.03-.54.36v8.29c0,.35.22.68.55.81l16.74,6.81c.8.32,1.68.32,2.48,0l16.7-6.78c.38-.16.58-.44.58-.86v-12.85c0-.38-.21-.73-.54-.91-1.49-.8-2.48-1.19-4.3-.45-3.63,1.47-7.84,3.18-12.64,5.13-.64.27-1.38.27-2.02,0l-21.44-8.72c-.59-.24-.59-.48,0-.72l7.73-3.14c.34-.13.68-.13,1.01,0l14.02,5.7c.68.28,1.35.27,2.03-.03l2.85-1.26c.67-.3.67-.59,0-.87l-13.37-5.43c-.63-.26-.63-.52,0-.78l6.92-2.81c.83-.33,1.65-.33,2.48,0l21.74,8.83c.27.11.45.38.45.67.02,4.56,0,10.38-.04,17.44,0,.16-.03.29-.05.44-1.38.51-2.37,1.83-2.37,3.39,0,2,1.62,3.62,3.62,3.62s3.62-1.62,3.62-3.62c0-1.65-1.11-3.02-2.61-3.46-.04-.3-.06-.62-.06-.95,0-5.81,0-10.31.03-13.49,0-.44.28-.84.68-1l6.32-2.47s.08-.04.12-.08c.25-.34.15-.61-.29-.78Z"/><path fill="#1e1e1e" d="M108.11,152.02c-.98,0-1.85-.19-2.6-.58-.76-.39-1.35-.95-1.77-1.68-.42-.73-.63-1.65-.63-2.74,0-.96.18-1.76.55-2.4.37-.64.91-1.17,1.62-1.57.71-.4,1.59-.73,2.64-1,1.05-.27,2.24-.5,3.57-.7.71-.11,1.3-.22,1.75-.32.46-.1.8-.27,1.02-.5.22-.23.33-.57.33-1.02,0-.62-.22-1.16-.67-1.6-.45-.45-1.15-.67-2.1-.67-.65,0-1.24.11-1.78.33-.55.22-1.01.56-1.4,1-.39.45-.67,1.01-.85,1.7l-4.24-1.3c.27-.91.65-1.7,1.15-2.37.5-.67,1.11-1.23,1.82-1.69.71-.46,1.52-.8,2.44-1.02.91-.22,1.9-.33,2.97-.33,1.71,0,3.11.27,4.19.82,1.08.55,1.88,1.39,2.42,2.54.53,1.15.8,2.62.8,4.42v3c0,.78.02,1.57.05,2.37.03.8.08,1.61.13,2.42s.12,1.62.18,2.42h-4.24c-.09-.56-.17-1.2-.25-1.92-.08-.72-.14-1.45-.18-2.19h-.6c-.31.85-.76,1.61-1.33,2.3-.58.69-1.28,1.24-2.12,1.65-.83.41-1.78.62-2.85.62ZM110.14,148.55c.42,0,.85-.08,1.28-.23.43-.16.86-.37,1.27-.65.41-.28.79-.63,1.13-1.05.34-.42.63-.9.85-1.43l-.07-2.8.77.17c-.4.29-.87.52-1.4.68-.53.17-1.08.29-1.65.38-.57.09-1.13.19-1.68.3-.56.11-1.05.26-1.48.43-.43.18-.78.42-1.03.72-.26.3-.38.72-.38,1.25,0,.69.22,1.23.67,1.63.44.4,1.02.6,1.73.6Z"/><path fill="#1e1e1e" d="M131.63,152.02c-1.51,0-2.84-.22-3.97-.67-1.13-.44-2.08-1.07-2.84-1.87s-1.32-1.75-1.7-2.85c-.38-1.1-.57-2.31-.57-3.62,0-1.38.19-2.64.58-3.79.39-1.15.96-2.14,1.72-2.99.76-.85,1.69-1.5,2.8-1.97,1.11-.47,2.38-.7,3.8-.7s2.66.23,3.72.7c1.06.47,1.91,1.12,2.57,1.95.66.83,1.11,1.82,1.35,2.95l-4.44,1.43c-.07-.69-.25-1.28-.55-1.79s-.7-.88-1.2-1.13-1.06-.38-1.68-.38-1.2.13-1.67.38c-.47.26-.86.62-1.18,1.1-.32.48-.57,1.06-.73,1.73-.17.68-.25,1.44-.25,2.29,0,1.2.16,2.22.48,3.05.32.83.8,1.47,1.43,1.9.63.43,1.42.65,2.35.65s1.6-.17,2.13-.52c.53-.34.93-.79,1.18-1.33.26-.54.42-1.11.48-1.68l4.2.93c-.11.87-.35,1.68-.72,2.44-.37.76-.88,1.41-1.55,1.97s-1.47,1-2.42,1.32c-.95.32-2.06.48-3.35.48Z"/><path fill="#1e1e1e" d="M146.64,152.02c-.98,0-1.85-.19-2.6-.58-.76-.39-1.35-.95-1.77-1.68-.42-.73-.63-1.65-.63-2.74,0-.96.18-1.76.55-2.4.37-.64.91-1.17,1.62-1.57.71-.4,1.59-.73,2.64-1,1.05-.27,2.24-.5,3.57-.7.71-.11,1.3-.22,1.75-.32.46-.1.8-.27,1.02-.5.22-.23.33-.57.33-1.02,0-.62-.22-1.16-.67-1.6-.45-.45-1.15-.67-2.1-.67-.65,0-1.24.11-1.78.33-.55.22-1.01.56-1.4,1-.39.45-.67,1.01-.85,1.7l-4.24-1.3c.27-.91.65-1.7,1.15-2.37.5-.67,1.11-1.23,1.82-1.69.71-.46,1.52-.8,2.44-1.02.91-.22,1.9-.33,2.97-.33,1.71,0,3.11.27,4.19.82,1.08.55,1.88,1.39,2.42,2.54.53,1.15.8,2.62.8,4.42v3c0,.78.02,1.57.05,2.37.03.8.08,1.61.13,2.42s.12,1.62.18,2.42h-4.24c-.09-.56-.17-1.2-.25-1.92-.08-.72-.14-1.45-.18-2.19h-.6c-.31.85-.76,1.61-1.33,2.3-.58.69-1.28,1.24-2.12,1.65-.83.41-1.78.62-2.85.62ZM148.67,148.55c.42,0,.85-.08,1.28-.23.43-.16.86-.37,1.27-.65.41-.28.79-.63,1.13-1.05.34-.42.63-.9.85-1.43l-.07-2.8.77.17c-.4.29-.87.52-1.4.68-.53.17-1.08.29-1.65.38-.57.09-1.13.19-1.68.3-.56.11-1.05.26-1.48.43-.43.18-.78.42-1.03.72-.26.3-.38.72-.38,1.25,0,.69.22,1.23.67,1.63.44.4,1.02.6,1.73.6Z"/><path fill="#1e1e1e" d="M168.49,152.02c-1.47,0-2.75-.38-3.85-1.13-1.1-.76-1.95-1.82-2.55-3.2-.6-1.38-.9-3.01-.9-4.9,0-1.78.27-3.36.8-4.74.53-1.38,1.32-2.46,2.37-3.24,1.05-.78,2.35-1.17,3.9-1.17,1.13,0,2.09.21,2.87.63.78.42,1.42,1.04,1.92,1.85.5.81.89,1.79,1.18,2.92h.77c-.16-.71-.29-1.41-.42-2.09-.12-.68-.22-1.33-.28-1.95-.07-.62-.1-1.17-.1-1.63v-5.67h4.8v23.85h-4v-5.07h-.67c-.25,1.25-.62,2.28-1.13,3.1-.51.82-1.16,1.43-1.95,1.83-.79.4-1.71.6-2.75.6ZM170.09,148.08c.73,0,1.36-.16,1.87-.47s.93-.72,1.27-1.22.58-1.05.73-1.63c.16-.59.23-1.14.23-1.65v-.63c0-.42-.06-.86-.18-1.32-.12-.46-.29-.91-.52-1.35-.22-.44-.5-.84-.83-1.18-.33-.34-.72-.62-1.17-.82-.45-.2-.93-.3-1.47-.3-.8,0-1.48.22-2.04.67-.56.45-.99,1.06-1.3,1.85-.31.79-.47,1.71-.47,2.75s.16,2,.48,2.8c.32.8.77,1.42,1.35,1.85s1.26.65,2.04.65Z"/><path fill="#1e1e1e" d="M184.77,151.55v-11.21h-2.77v-3.54l4.67.2v-.63c-.78-.18-1.42-.46-1.92-.85-.5-.39-.86-.86-1.08-1.42-.22-.56-.33-1.15-.33-1.77,0-.96.24-1.79.73-2.49.49-.7,1.18-1.25,2.07-1.63.89-.39,1.93-.58,3.14-.58,1.02,0,1.95.13,2.79.38.83.26,1.51.57,2.02.95l-.3,4.34c-.53-.38-1.13-.69-1.8-.93-.67-.24-1.3-.37-1.9-.37-.67,0-1.22.18-1.65.53-.43.36-.65.93-.65,1.73,0,.56.12,1,.35,1.32.23.32.52.56.87.7.34.14.68.24,1.02.28h4v3.77h-4.57v11.21h-4.67Z"/><path fill="#1e1e1e" d="M196.75,151.55v-23.85h4.74v23.85h-4.74Z"/><path fill="#1e1e1e" d="M213.83,152.02c-1.76,0-3.3-.35-4.64-1.05s-2.38-1.73-3.14-3.1c-.76-1.37-1.13-3.07-1.13-5.12s.38-3.75,1.15-5.1c.77-1.36,1.82-2.37,3.17-3.05s2.87-1.02,4.59-1.02,3.31.35,4.65,1.03c1.35.69,2.4,1.72,3.17,3.09.77,1.37,1.15,3.07,1.15,5.12s-.4,3.79-1.18,5.15c-.79,1.37-1.86,2.39-3.2,3.05-1.35.67-2.88,1-4.59,1ZM214,148.45c.87,0,1.6-.2,2.19-.6.59-.4,1.03-1.01,1.33-1.82.3-.81.45-1.8.45-2.95,0-1.22-.16-2.26-.48-3.12-.32-.86-.8-1.51-1.42-1.97-.62-.46-1.41-.68-2.37-.68-.82,0-1.53.2-2.14.58-.6.39-1.06.99-1.37,1.8-.31.81-.47,1.81-.47,2.99,0,1.89.38,3.33,1.13,4.3.76.98,1.8,1.47,3.14,1.47Z"/><path fill="#1e1e1e" d="M228.74,151.55l-4.34-17.52h5l2.47,13.71h.63l2.94-13.71h5.77l3.04,13.71h.63l2.4-13.71h4.9l-4.37,17.52h-6.61l-2.74-13.61h-.57l-2.6,13.61h-6.57Z"/><path fill="#1e1e1e" d="M130.83,167.07l-1.75-5.14h1.02s1.25,3.84,1.25,3.84l-.23-.02,1.36-3h.61l1.37,3.01-.26.02,1.26-3.85h1.02l-1.73,5.14h-.69l-1.43-3.27.23.03-1.33,3.24h-.69Z"/><path fill="#1e1e1e" d="M137.4,167.07v-7.24h1.01v3.16l-.18.12c.07-.23.19-.44.38-.63.19-.19.41-.35.68-.47.26-.12.53-.18.8-.18.39,0,.72.08.98.23.26.15.46.39.59.7.13.31.2.71.2,1.18v3.13h-1.01v-3.06c0-.29-.04-.54-.12-.73-.08-.19-.2-.33-.36-.42-.16-.09-.37-.13-.61-.11-.2,0-.37.03-.54.09-.16.06-.31.15-.43.26-.12.11-.22.24-.28.39-.07.15-.1.31-.1.47v3.11h-1.01Z"/><path fill="#1e1e1e" d="M145.62,167.17c-.53,0-1-.11-1.4-.34-.41-.23-.73-.53-.96-.92-.23-.39-.35-.84-.35-1.35,0-.4.06-.77.2-1.11s.31-.62.54-.87c.23-.25.51-.43.83-.57.32-.13.67-.2,1.05-.2.33,0,.64.06.93.19.29.13.54.3.75.52.21.22.37.48.49.79.11.3.17.63.16.99v.43h-4.21l-.22-.8h3.55l-.15.17v-.23c-.02-.22-.09-.41-.22-.58-.12-.17-.28-.3-.47-.4-.19-.1-.39-.15-.62-.15-.35,0-.65.07-.89.2-.24.13-.42.33-.55.59-.12.26-.19.58-.19.95,0,.36.07.67.23.93.15.26.36.47.64.61s.59.22.95.22c.25,0,.49-.04.71-.13s.46-.24.71-.46l.51.71c-.16.16-.35.29-.57.41-.22.12-.46.21-.71.28-.25.07-.5.1-.74.1Z"/><path fill="#1e1e1e" d="M148.95,167.07v-5.14h1.02v1.61l-.1-.39c.07-.25.19-.47.37-.68.17-.2.37-.36.6-.48.23-.12.46-.18.7-.18.11,0,.22,0,.32.03.1.02.18.04.24.07l-.26,1.1c-.08-.03-.16-.06-.26-.08-.1-.02-.19-.03-.28-.03-.18,0-.34.03-.5.1-.16.07-.3.16-.42.28-.12.12-.22.26-.29.42-.07.16-.11.33-.11.52v2.84h-1.02Z"/><path fill="#1e1e1e" d="M155.08,167.17c-.53,0-1-.11-1.4-.34-.41-.23-.73-.53-.96-.92-.23-.39-.35-.84-.35-1.35,0-.4.06-.77.2-1.11s.31-.62.54-.87c.23-.25.51-.43.83-.57.32-.13.67-.2,1.05-.2.33,0,.64.06.93.19s.54.3.75.52.37.48.49.79.17.63.16.99v.43h-4.21l-.22-.8h3.55l-.15.17v-.23c-.02-.22-.09-.41-.22-.58-.12-.17-.28-.3-.47-.4-.19-.1-.39-.15-.62-.15-.35,0-.65.07-.89.2-.24.13-.42.33-.55.59-.12.26-.19.58-.19.95,0,.36.07.67.23.93.15.26.36.47.64.61.27.14.59.22.95.22.25,0,.49-.04.71-.13s.46-.24.71-.46l.51.71c-.16.16-.35.29-.57.41-.22.12-.46.21-.71.28-.25.07-.5.1-.74.1Z"/><path fill="#1e1e1e" d="M161.18,167.07v-7.24h1.01v7.24h-1.01Z"/><path fill="#1e1e1e" d="M165.91,167.17c-.53,0-1-.11-1.4-.34-.41-.23-.73-.53-.96-.92-.23-.39-.35-.84-.35-1.35,0-.4.06-.77.2-1.11s.31-.62.54-.87c.23-.25.51-.43.83-.57.32-.13.67-.2,1.05-.2.33,0,.64.06.93.19s.54.3.75.52.37.48.49.79.17.63.16.99v.43h-4.21l-.22-.8h3.55l-.15.17v-.23c-.02-.22-.09-.41-.22-.58-.12-.17-.28-.3-.47-.4-.19-.1-.39-.15-.62-.15-.35,0-.65.07-.89.2-.24.13-.42.33-.55.59-.12.26-.19.58-.19.95,0,.36.07.67.22.93.15.26.36.47.64.61.27.14.59.22.95.22.25,0,.49-.04.71-.13s.46-.24.71-.46l.51.71c-.16.16-.35.29-.57.41-.22.12-.46.21-.71.28-.25.07-.5.1-.74.1Z"/><path fill="#1e1e1e" d="M171.23,167.17c-.42,0-.81-.12-1.16-.35-.35-.23-.63-.55-.84-.96-.21-.4-.31-.86-.31-1.37s.11-.97.32-1.37.5-.72.86-.94c.36-.23.77-.34,1.22-.34.27,0,.51.04.73.12.22.08.42.19.58.33.17.14.3.3.41.48.11.18.17.38.2.59l-.22-.08v-1.33h1.02v5.14h-1.02v-1.22l.23-.07c-.04.18-.12.35-.24.51-.12.17-.27.32-.46.45s-.39.23-.62.31-.46.12-.71.12ZM171.49,166.24c.31,0,.58-.07.81-.22.24-.15.42-.36.55-.62.13-.26.2-.57.2-.91s-.07-.63-.2-.89c-.13-.26-.32-.47-.55-.62-.23-.15-.51-.22-.81-.22s-.57.07-.8.22c-.23.15-.41.36-.55.62-.13.26-.2.56-.2.89s.07.64.2.91c.13.26.32.47.55.62s.5.22.8.22Z"/><path fill="#1e1e1e" d="M175.44,167.07v-5.14h1.02v1.61l-.1-.39c.07-.25.19-.47.37-.68.17-.2.37-.36.6-.48.22-.12.46-.18.7-.18.11,0,.22,0,.32.03.1.02.18.04.24.07l-.27,1.1c-.08-.03-.16-.06-.26-.08-.09-.02-.19-.03-.28-.03-.18,0-.34.03-.5.1-.16.07-.3.16-.42.28-.12.12-.22.26-.29.42-.07.16-.11.33-.11.52v2.84h-1.02Z"/><path fill="#1e1e1e" d="M179.39,167.07v-5.14h1.01v1.06l-.18.12c.07-.23.19-.44.38-.63.19-.19.41-.35.67-.47s.53-.18.8-.18c.39,0,.72.08.98.23.26.15.46.39.59.7.13.31.2.71.2,1.18v3.13h-1.01v-3.06c0-.29-.04-.54-.12-.73-.08-.19-.2-.33-.36-.42-.16-.09-.37-.13-.61-.11-.2,0-.37.03-.54.09-.16.06-.3.15-.42.26-.12.11-.22.24-.28.39s-.1.31-.1.47v3.11h-1.01Z"/><path fill="#1e1e1e" d="M185.86,160.8c-.22,0-.38-.05-.5-.17-.12-.11-.18-.27-.18-.47,0-.19.06-.34.18-.46.12-.12.29-.18.49-.18s.38.06.5.17.18.27.18.47c0,.19-.06.34-.18.46-.12.12-.29.18-.49.18ZM185.38,167.07v-5.14h1.01v5.14h-1.01Z"/><path fill="#1e1e1e" d="M187.93,167.07v-5.14h1.01v1.06l-.18.12c.07-.23.19-.44.38-.63.19-.19.41-.35.67-.47s.53-.18.8-.18c.39,0,.72.08.98.23.26.15.46.39.59.7.13.31.2.71.2,1.18v3.13h-1.01v-3.06c0-.29-.04-.54-.12-.73-.08-.19-.2-.33-.36-.42-.16-.09-.37-.13-.61-.11-.2,0-.37.03-.54.09-.16.06-.3.15-.42.26-.12.11-.22.24-.28.39s-.1.31-.1.47v3.11h-1.01Z"/><path fill="#1e1e1e" d="M196.05,169.32c-.37,0-.73-.06-1.09-.17-.36-.11-.65-.26-.88-.44l.37-.78c.13.1.28.18.46.26s.36.13.56.18c.2.04.39.06.58.06.36,0,.66-.06.9-.18.24-.12.42-.29.55-.52.12-.23.19-.51.19-.85v-.99l.11.07c-.03.2-.14.4-.32.58-.18.19-.4.34-.67.46-.27.12-.54.18-.82.18-.49,0-.93-.12-1.31-.35-.38-.23-.68-.55-.91-.95s-.33-.86-.33-1.37.11-.97.33-1.38.52-.72.9-.95c.38-.23.81-.35,1.29-.35.2,0,.38.02.57.07s.35.12.51.21c.16.09.3.18.42.29s.22.22.3.33c.08.12.13.23.15.33l-.22.08v-1.2h1.01v4.82c0,.41-.06.77-.18,1.09-.12.32-.3.58-.52.8-.23.22-.51.38-.83.5s-.69.17-1.11.17ZM196.09,166.24c.32,0,.6-.07.85-.22s.44-.36.58-.62.2-.56.2-.9-.07-.64-.21-.91c-.14-.26-.33-.47-.58-.62s-.53-.23-.85-.23-.59.08-.84.23c-.25.15-.44.36-.58.63-.14.26-.21.56-.21.9s.07.63.21.9c.14.26.33.47.58.62.24.15.52.22.84.22Z"/><path fill="#1e1e1e" d="M202.58,162.95v-.93h3.05v.93h-3.05ZM203.4,167.07v-5.71c0-.29.06-.55.2-.78.13-.23.31-.41.54-.54.23-.13.49-.2.79-.2.21,0,.4.04.59.12s.33.18.44.31l-.34.77c-.08-.08-.18-.14-.28-.19-.1-.05-.2-.07-.29-.07-.14,0-.25.02-.35.06-.09.04-.16.11-.21.2-.05.09-.07.19-.07.32v5.71h-1.02ZM206.71,167.07v-7.24h1.01v7.24h-1.01Z"/><path fill="#1e1e1e" d="M211.36,167.17c-.5,0-.95-.12-1.35-.35-.39-.23-.71-.55-.94-.95s-.34-.86-.34-1.37.11-.97.34-1.38.54-.72.94-.95.84-.35,1.35-.35.94.12,1.33.35c.39.23.71.55.94.95s.34.86.34,1.38-.12.97-.34,1.37-.54.72-.94.95c-.39.23-.84.35-1.33.35ZM211.36,166.25c.31,0,.58-.08.82-.23.24-.15.43-.36.57-.63.14-.26.2-.56.2-.9,0-.34-.06-.64-.2-.91-.14-.26-.33-.47-.57-.62-.24-.15-.52-.23-.82-.23s-.58.08-.83.23c-.25.15-.44.36-.57.63-.14.26-.2.56-.2.9,0,.33.06.63.2.9.14.26.33.47.57.63.25.15.52.23.83.23Z"/><path fill="#1e1e1e" d="M216.13,167.07l-1.75-5.14h1.02s1.25,3.84,1.25,3.84l-.22-.02,1.36-3h.61l1.37,3.01-.27.02,1.26-3.85h1.02l-1.73,5.14h-.7l-1.43-3.27.22.03-1.33,3.24h-.69Z"/><path fill="#1e1e1e" d="M224.36,167.17c-.43,0-.82-.07-1.16-.22-.34-.15-.63-.37-.86-.67l.69-.59c.2.23.41.39.64.49.23.1.49.15.79.15.12,0,.23-.01.33-.04.1-.03.19-.07.26-.13s.13-.13.17-.21c.04-.08.06-.17.06-.27,0-.17-.06-.31-.19-.41-.07-.05-.17-.1-.31-.15s-.32-.11-.54-.17c-.38-.1-.69-.21-.93-.33-.24-.12-.43-.26-.56-.42-.1-.12-.17-.26-.22-.41s-.07-.31-.07-.48c0-.22.05-.41.14-.59.1-.18.22-.34.39-.47.17-.13.36-.24.59-.31s.47-.11.72-.11c.24,0,.48.03.72.1.24.07.46.16.66.28.2.12.37.27.51.44l-.58.64c-.12-.12-.26-.23-.41-.33s-.3-.17-.45-.22-.29-.08-.41-.08c-.14,0-.26.01-.37.04-.11.03-.2.06-.28.12s-.13.12-.17.2c-.04.08-.06.17-.06.26,0,.09.03.17.06.24s.09.14.15.19c.07.05.18.11.32.17s.33.11.55.17c.33.09.59.18.81.28.21.1.38.22.5.35.13.12.22.27.27.43.05.16.08.35.08.55,0,.29-.08.56-.25.79-.17.23-.39.41-.67.54s-.59.2-.94.2Z"/><path fill="#1e1e1e" d="M93.96,140.59c-10.59-4.29-21.11-8.56-31.56-12.8-.53-.22-1.13-.22-1.68,0l-31.87,12.94c-.13.06-.21.2-.17.34.04.16.18.29.43.38,10.33,4.18,20.82,8.44,31.46,12.78.64.27,1.36.27,2.01,0l13.54-5.5c.12-.05.24.03.24.16v8.04c0,.15-.09.27-.23.33l-13.79,5.6c-.5.2-1.05.2-1.55,0l-13.31-5.41c-.37-.15-.61-.51-.61-.91v-4.05c0-.38-.23-.71-.56-.84l-2.73-1.11c-.36-.14-.54-.03-.54.36v8.29c0,.35.22.68.55.81l16.74,6.81c.8.32,1.68.32,2.48,0l16.7-6.78c.38-.16.58-.44.58-.86v-12.85c0-.38-.21-.73-.54-.91-1.49-.8-2.48-1.19-4.3-.45-3.63,1.47-7.84,3.18-12.64,5.13-.64.27-1.38.27-2.02,0l-21.44-8.72c-.59-.24-.59-.48,0-.72l7.73-3.14c.34-.13.68-.13,1.01,0l14.02,5.7c.68.28,1.35.27,2.03-.03l2.85-1.26c.67-.3.67-.59,0-.87l-13.37-5.43c-.63-.26-.63-.52,0-.78l6.92-2.81c.83-.33,1.65-.33,2.48,0l21.74,8.83c.27.11.45.38.45.67.02,4.56,0,10.38-.04,17.44,0,.16-.03.29-.05.44-1.38.51-2.37,1.83-2.37,3.39,0,2,1.62,3.62,3.62,3.62s3.62-1.62,3.62-3.62c0-1.65-1.11-3.02-2.61-3.46-.04-.3-.06-.62-.06-.95,0-5.81,0-10.31.03-13.49,0-.44.28-.84.68-1l6.32-2.47s.08-.04.12-.08c.25-.34.15-.61-.29-.78Z"/></svg>